<?xml version="1.0" encoding="UTF-8"?>
<svg version="1.1" xmlns="http://www.w3.org/2000/svg" width="512" height="512">
<path d="M0 0 C0.72638672 -0.02449219 1.45277344 -0.04898438 2.20117188 -0.07421875 C13.57791451 -0.1335241 23.15143274 5.02096698 32.625 10.8125 C34.7347904 12.07309976 36.84549045 13.33217816 38.95703125 14.58984375 C40.01615723 15.22390137 41.0752832 15.85795898 42.16650391 16.51123047 C47.0047413 19.37752756 51.90632465 22.12716968 56.8125 24.875 C64.5831738 29.24327136 72.30807038 33.68204576 80 38.1875 C88.69897051 43.28265196 97.429729 48.31924677 106.1875 53.3125 C118.5128733 60.34082108 130.80972214 67.41740519 143.09472656 74.51611328 C147.41585916 77.01240338 151.73848395 79.50610236 156.0612793 81.99951172 C158.21917813 83.24431001 160.37689466 84.48942438 162.53442383 85.73486328 C168.10945791 88.95277008 173.68723455 92.16580328 179.26953125 95.37109375 C185.62647612 99.02312761 191.97561005 102.68826881 198.3125 106.375 C199.05967285 106.8095752 199.8068457 107.24415039 200.57666016 107.69189453 C214.11143362 115.61591353 223.13128362 123.2145961 227.66581655 138.64354134 C228.66528295 142.86508304 228.72711717 146.92073453 228.69345093 151.24194336 C228.6981309 152.18264899 228.70281087 153.12335463 228.70763266 154.09256649 C228.71951386 157.21680614 228.71015239 160.34060154 228.70068359 163.46484375 C228.70475234 165.71607721 228.71009593 167.96730867 228.71661377 170.21853638 C228.73025696 176.31351266 228.72500102 182.40833611 228.71547651 188.50331497 C228.70786442 194.89145561 228.71492983 201.27958344 228.71963501 207.66772461 C228.72543701 219.08050342 228.71613261 230.49319782 228.700857 241.90596235 C228.68745509 252.23844932 228.68978359 262.57083516 228.70361328 272.90332031 C228.71969429 284.92331366 228.72562981 296.9432307 228.71677649 308.96323872 C228.71210707 315.31828043 228.71145506 321.67325259 228.72138596 328.02828979 C228.730072 334.00377183 228.72400358 339.97906346 228.70670319 345.95452499 C228.70274712 348.14340779 228.70385724 350.3323067 228.71049118 352.52118301 C228.71873152 355.5170216 228.70835491 358.51225617 228.69345093 361.50805664 C228.70014309 362.36702514 228.70683526 363.22599363 228.71373022 364.11099148 C228.60955841 374.96226664 224.98881152 385.40651998 217.42944336 393.35498047 C211.57521715 398.64218325 205.38157915 402.55417508 198.5 406.375 C196.77722598 407.35030165 195.05445872 408.32561539 193.33203125 409.30152893 C191.53672613 410.31654009 189.73869997 411.32657251 187.93994141 412.33544922 C182.5928724 415.33717074 177.27212946 418.38495896 171.94961548 421.42993164 C170.17953904 422.44205204 168.40859332 423.45263648 166.63745117 424.46289062 C159.17058951 428.72426671 151.73189587 433.03154653 144.3125 437.375 C135.71727328 442.4068069 127.0893787 447.37889072 118.4375 452.3125 C106.11224804 459.34103507 93.81527933 466.41740434 81.53027344 473.51611328 C78.29425371 475.38554076 75.05744423 477.25359255 71.8203125 479.12109375 C70.74539551 479.74121338 69.67047852 480.36133301 68.56298828 481.00024414 C66.40788904 482.24322199 64.25261749 483.48590115 62.09716797 484.72827148 C57.07012684 487.62649515 52.04513289 490.52807201 47.02807617 493.44354248 C45.26274789 494.46915628 43.49671529 495.49354664 41.73046875 496.51757812 C39.5233368 497.79771466 37.31751077 499.08010666 35.11328125 500.36523438 C19.44695195 509.4420769 6.19076912 515.09395724 -12.12890625 511.74609375 C-23.37591762 508.22709019 -33.41152009 501.34034172 -43.44042969 495.31298828 C-48.77917028 492.1266031 -54.17153593 489.03441952 -59.5625 485.9375 C-61.74752736 484.67861368 -63.93242265 483.4194981 -66.1171875 482.16015625 C-67.20225586 481.53512207 -68.28732422 480.91008789 -69.40527344 480.26611328 C-74.83409946 477.13819849 -80.26066556 474.00636837 -85.6875 470.875 C-87.29818359 469.9459082 -87.29818359 469.9459082 -88.94140625 468.99804688 C-94.33437516 465.88721667 -99.72656364 462.77504851 -105.1171875 459.66015625 C-116.92379484 452.83997363 -128.74777 446.0517674 -140.59222412 439.29763794 C-149.62169169 434.14683806 -158.61550319 428.93787335 -167.58129883 423.67700195 C-173.03640108 420.48247444 -178.51328328 417.33176444 -184.01953125 414.2265625 C-185.276716 413.51566619 -186.53387752 412.80472879 -187.79101562 412.09375 C-190.18547328 410.73994007 -192.58422893 409.39501848 -194.98632812 408.0546875 C-210.36157737 399.36628045 -222.2216393 391.06915775 -227.22469592 373.48715842 C-227.69089824 371.35949103 -227.81500854 369.4937291 -227.81892776 367.31874657 C-227.82276891 366.51576838 -227.82661005 365.71279019 -227.8305676 364.88547933 C-227.82970112 364.00903379 -227.82883463 363.13258824 -227.82794189 362.22958374 C-227.83091302 361.29400466 -227.83388414 360.35842557 -227.8369453 359.39449561 C-227.84563392 356.2517576 -227.8471407 353.10905767 -227.84863281 349.96630859 C-227.85326093 347.7159619 -227.85828558 345.46561599 -227.86367798 343.215271 C-227.87680603 337.09519719 -227.88324793 330.97513435 -227.88768864 324.85504866 C-227.89061918 321.03103583 -227.89472399 317.207026 -227.89919281 313.38301468 C-227.91130263 302.78860029 -227.92168392 292.19418852 -227.9250679 281.59976768 C-227.92528747 280.9218732 -227.92550703 280.24397872 -227.92573325 279.54554198 C-227.92595153 278.86605094 -227.92616981 278.18655989 -227.9263947 277.48647821 C-227.92683816 276.10963782 -227.92728473 274.73279742 -227.92773438 273.35595703 C-227.9279558 272.67300074 -227.92817723 271.99004446 -227.92840537 271.28639252 C-227.93235028 260.22914521 -227.94979494 249.17196392 -227.9730939 238.11474209 C-227.99683965 226.75341749 -228.00901357 215.39213712 -228.01043582 204.0307833 C-228.01148342 197.6555174 -228.01738157 191.2803446 -228.03525543 184.90510178 C-228.05174956 178.90509684 -228.05388498 172.90525484 -228.04511642 166.90523529 C-228.04434673 164.70667458 -228.0486798 162.50810507 -228.05857468 160.3095665 C-228.07132071 157.300291 -228.06540269 154.29159022 -228.05499268 151.28231812 C-228.06304908 150.4192569 -228.07110548 149.55619569 -228.07940602 148.6669811 C-227.99190526 137.79718205 -224.36369115 127.41815054 -216.84838867 119.41699219 C-210.6660896 113.79204731 -203.92120094 109.76246314 -196.625 105.75 C-195.37882546 105.0533909 -194.13339496 104.35544929 -192.88867188 103.65625 C-190.98866446 102.58906098 -189.08830836 101.52258015 -187.18563843 100.46014404 C-181.30695052 97.17633268 -175.49286888 93.78660461 -169.6875 90.375 C-161.09320504 85.34161916 -152.46436235 80.37109996 -143.8125 75.4375 C-134.71670013 70.25057574 -125.63037737 65.04818494 -116.5625 59.8125 C-115.49644531 59.19697266 -114.43039063 58.58144531 -113.33203125 57.94726562 C-110.11692477 56.09029806 -106.90214622 54.23276421 -103.6875 52.375 C-80.41568044 38.92606959 -80.41568044 38.92606959 -70.671875 33.3671875 C-70.08553284 33.03267578 -69.49919067 32.69816406 -68.89508057 32.35351562 C-66.53059039 31.00483541 -64.16597801 29.65637081 -61.80090332 28.30871582 C-52.38155573 22.94019274 -43.00493766 17.50142745 -33.67529297 11.97827148 C-22.72255762 5.53577244 -12.97162138 0.02242285 0 0 Z " fill="#B14796" transform="translate(255.6875,-0.375)"/>
<path d="M0 0 C3 1 3 1 4.15033054 2.93807793 C8.05320397 13.52985806 7.55524102 24.17106297 7.50170898 35.31689453 C7.50549685 37.56842384 7.51100072 39.81995081 7.51808167 42.07147217 C7.53199083 48.15811573 7.52089895 54.24447519 7.50437045 60.33110285 C7.49047448 66.71389114 7.49698508 73.09666369 7.50050354 79.47946167 C7.50320167 90.19388472 7.4898513 100.90816855 7.46655273 111.62255859 C7.44262467 122.62780928 7.43555464 133.63291155 7.44604492 144.63818359 C7.45869319 157.9310319 7.45614564 171.22377568 7.44038582 184.51662827 C7.43463854 189.58257527 7.43469878 194.64847261 7.43945122 199.71442032 C7.44423445 205.68173194 7.43406336 211.64883901 7.41249657 217.61611176 C7.4069474 219.80176733 7.40644615 221.98744263 7.41144943 224.17309952 C7.41743682 227.16446256 7.40483101 230.15520738 7.38768005 233.14651489 C7.3936901 234.00411915 7.39970014 234.86172341 7.40589231 235.74531567 C7.29338247 246.59234175 3.67353104 257.03444357 -3.88305664 264.97998047 C-9.73728285 270.26718325 -15.93092085 274.17917508 -22.8125 278 C-24.53527402 278.97530165 -26.25804128 279.95061539 -27.98046875 280.92652893 C-29.77577387 281.94154009 -31.57380003 282.95157251 -33.37255859 283.96044922 C-38.7196276 286.96217074 -44.04037054 290.00995896 -49.36288452 293.05493164 C-51.13296096 294.06705204 -52.90390668 295.07763648 -54.67504883 296.08789062 C-62.14191049 300.34926671 -69.58060413 304.65654653 -77 309 C-85.59522672 314.0318069 -94.2231213 319.00389072 -102.875 323.9375 C-115.20025196 330.96603507 -127.49722067 338.04240434 -139.78222656 345.14111328 C-143.01824629 347.01054076 -146.25505577 348.87859255 -149.4921875 350.74609375 C-150.56710449 351.36621338 -151.64202148 351.98633301 -152.74951172 352.62524414 C-154.90461096 353.86822199 -157.05988251 355.11090115 -159.21533203 356.35327148 C-164.24237316 359.25149515 -169.26736711 362.15307201 -174.28442383 365.06854248 C-176.04975211 366.09415628 -177.81578471 367.11854664 -179.58203125 368.14257812 C-181.7891632 369.42271466 -183.99498923 370.70510666 -186.19921875 371.99023438 C-201.86554805 381.0670769 -215.12173088 386.71895724 -233.44140625 383.37109375 C-244.68841762 379.85209019 -254.72402009 372.96534172 -264.75292969 366.93798828 C-270.09167028 363.7516031 -275.48403593 360.65941952 -280.875 357.5625 C-283.06002736 356.30361368 -285.24492265 355.0444981 -287.4296875 353.78515625 C-288.51475586 353.16012207 -289.59982422 352.53508789 -290.71777344 351.89111328 C-296.14659946 348.76319849 -301.57316556 345.63136837 -307 342.5 C-308.61068359 341.5709082 -308.61068359 341.5709082 -310.25390625 340.62304688 C-315.64687516 337.51221667 -321.03906364 334.40004851 -326.4296875 331.28515625 C-338.23629484 324.46497363 -350.06027 317.6767674 -361.90472412 310.92263794 C-370.93419169 305.77183806 -379.92800319 300.56287335 -388.89379883 295.30200195 C-394.34890108 292.10747444 -399.82578328 288.95676444 -405.33203125 285.8515625 C-406.589216 285.14066619 -407.84637752 284.42972879 -409.10351562 283.71875 C-411.49797328 282.36494007 -413.89672893 281.02001848 -416.29882812 279.6796875 C-427.20989697 273.51394632 -436.87494499 267.50520056 -444 257 C-441.61582368 254.36686961 -439.08148373 252.74432542 -436.00390625 250.98828125 C-434.98474121 250.40361084 -433.96557617 249.81894043 -432.91552734 249.21655273 C-431.80902832 248.58821533 -430.7025293 247.95987793 -429.5625 247.3125 C-428.39769711 246.64635536 -427.23315103 245.97976147 -426.06884766 245.31274414 C-422.9993652 243.55581371 -419.92666014 241.80460381 -416.85296631 240.05505371 C-412.1081117 237.3533983 -407.36735284 234.64455164 -402.62585449 231.93701172 C-400.87357046 230.93668391 -399.12086801 229.93709183 -397.36816406 228.9375 C-388.51193048 223.88311225 -379.69442797 218.76425002 -370.89990234 213.60327148 C-369.11170467 212.55516519 -367.32052198 211.51212896 -365.52587891 210.47509766 C-363.82664768 209.48275713 -362.14135997 208.46618808 -360.47021484 207.42724609 C-359.67953613 206.94980957 -358.88885742 206.47237305 -358.07421875 205.98046875 C-357.38287842 205.55016357 -356.69153809 205.1198584 -355.97924805 204.67651367 C-354 204 -354 204 -351.859375 204.72412109 C-349.22587148 206.53119691 -347.99127106 208.73105358 -346.3125 211.4375 C-325.75643787 243.15795551 -294.30025097 264.45015819 -258 274 C-256.28683594 274.4640625 -256.28683594 274.4640625 -254.5390625 274.9375 C-220.66907978 283.81024106 -182.93874347 277.3523324 -152 262 C-150.48212891 261.26136719 -150.48212891 261.26136719 -148.93359375 260.5078125 C-136.16985656 253.93086495 -125.28001901 244.91287547 -115 235 C-114.22140625 234.28457031 -113.4428125 233.56914062 -112.640625 232.83203125 C-107.95658697 228.40544921 -104.01526584 223.60234032 -100.1875 218.4375 C-99.50288696 217.51759277 -99.50288696 217.51759277 -98.80444336 216.57910156 C-95.67989438 212.25324618 -93.28576171 207.82194487 -91 203 C-103.81979744 195.37862847 -116.68911429 187.84957369 -129.61621094 180.41162109 C-138.44383809 175.32981403 -147.23466209 170.1883964 -156 165 C-156.2578125 165.72703125 -156.515625 166.4540625 -156.78125 167.203125 C-163.27192255 182.09838636 -179.1397281 192.61939412 -193.7265625 198.57421875 C-212.18493987 205.47140687 -233.52265013 204.99477736 -251.76953125 197.5390625 C-272.56929538 187.62962227 -286.21087818 170.54775239 -293.8125 149.125 C-299.09202353 133.31842651 -297.38153977 114.1372144 -291 99 C-290.54238281 97.91332031 -290.08476562 96.82664062 -289.61328125 95.70703125 C-286.34917651 88.65119936 -282.1426754 82.80329576 -277 77 C-276.49210938 76.39800781 -275.98421875 75.79601562 -275.4609375 75.17578125 C-264.72044048 63.36123453 -247.30858008 53.95810911 -231.3684082 52.81054688 C-228.45119883 52.73200953 -225.54311974 52.72708283 -222.625 52.75 C-221.64789063 52.74226563 -220.67078125 52.73453125 -219.6640625 52.7265625 C-199.51803619 52.78014236 -181.1630596 61.11161285 -166.78125 75.06640625 C-162.63205736 79.29703966 -159.25269595 84.0539888 -156 89 C-152.21481268 87.5839494 -148.80250679 85.84578935 -145.30078125 83.83203125 C-144.18751465 83.19386475 -143.07424805 82.55569824 -141.92724609 81.89819336 C-140.72228318 81.20304466 -139.5173691 80.5078113 -138.3125 79.8125 C-137.05565201 79.09031382 -135.79865088 78.3683941 -134.54150391 77.64672852 C-131.31362852 75.79256933 -128.08810651 73.93436047 -124.86346436 72.07458496 C-122.00474796 70.42607817 -119.14481546 68.77968312 -116.28515625 67.1328125 C-110.93002443 64.04688685 -105.57797867 60.95564461 -100.2265625 57.86328125 C-96.96475993 55.9796495 -93.70138156 54.09877679 -90.4375 52.21875 C-79.98287012 46.19560239 -69.53954405 40.15472726 -59.125 34.0625 C-49.16347304 28.23690026 -39.15838989 22.48959297 -29.12573242 16.78759766 C-23.7612645 13.73652822 -18.41125458 10.66680372 -13.109375 7.5078125 C-12.22677002 6.98469482 -11.34416504 6.46157715 -10.43481445 5.92260742 C-8.81620484 4.96004976 -7.20240681 3.98933596 -5.59448242 3.0090332 C-3.77320384 1.92896051 -1.89091476 0.95291871 0 0 Z " fill="#962C87" transform="translate(477,128)"/>
<path d="M0 0 C2.17444005 -0.00216746 4.34835573 -0.02030915 6.52270508 -0.03930664 C19.30837752 -0.09280699 31.53943493 1.39095027 43.8918457 4.81030273 C44.82359619 5.06682617 45.75534668 5.32334961 46.71533203 5.58764648 C55.94820927 8.24110639 64.55005611 11.92191014 73.1418457 16.18530273 C74.15375977 16.67772461 75.16567383 17.17014648 76.20825195 17.67749023 C88.01433062 23.76097182 98.59419391 32.01236255 108.1418457 41.18530273 C109.09704102 42.07733398 110.05223633 42.96936523 111.03637695 43.88842773 C118.79113385 51.26533104 125.0907021 59.37674001 131.1418457 68.18530273 C131.73545898 69.0307666 131.73545898 69.0307666 132.34106445 69.89331055 C135.1418457 73.94952971 135.1418457 73.94952971 135.1418457 76.18530273 C134.47354736 76.55703613 133.80524902 76.92876953 133.11669922 77.31176758 C117.21001578 86.1473297 117.21001578 86.1473297 101.4543457 95.24780273 C100.80771973 95.62759277 100.16109375 96.00738281 99.49487305 96.39868164 C95.41741064 98.80497136 91.37994086 101.26992239 87.3527832 103.75952148 C86.354646 104.36852295 85.35650879 104.97752441 84.328125 105.60498047 C82.36043332 106.80597245 80.40059847 108.01995286 78.44970703 109.24804688 C77.55791748 109.78937256 76.66612793 110.33069824 75.74731445 110.88842773 C74.95478271 111.37988281 74.16225098 111.87133789 73.34570312 112.37768555 C71.1418457 113.18530273 71.1418457 113.18530273 68.96582031 112.47167969 C66.48333406 110.72088059 65.18933535 108.65288813 63.5168457 106.12280273 C52.89991915 91.17323337 35.9598573 80.96592234 17.9152832 77.57983398 C2.96654651 76.01687083 -10.91114952 76.35115589 -24.8581543 82.18530273 C-25.77467773 82.5578418 -26.69120117 82.93038086 -27.63549805 83.31420898 C-46.93617636 92.06506945 -59.22671473 107.93177439 -67.0534668 127.11499023 C-73.846877 146.92514448 -70.3399819 168.81141678 -61.36206055 187.25952148 C-52.29917302 203.88568205 -37.88868908 216.1304437 -19.9519043 222.29077148 C1.60671798 228.52426202 23.58446203 225.74110102 43.2043457 215.06030273 C54.53936803 208.12752158 62.40282869 199.54252847 69.1418457 188.18530273 C72.77444916 189.55003096 76.05145977 191.18331433 79.40356445 193.13452148 C80.42780518 193.72821533 81.4520459 194.32190918 82.50732422 194.93359375 C83.60359131 195.57353271 84.6998584 196.21347168 85.8293457 196.87280273 C87.56804647 197.88289102 89.30675133 198.89297235 91.04570007 199.90263367 C92.24786892 200.60085514 93.44978024 201.29952018 94.65144348 201.99861145 C98.86565397 204.44936725 103.09051608 206.88088324 107.3215332 209.30249023 C108.48734377 209.97079772 109.65311575 210.6391725 110.81884766 211.30761719 C113.0193046 212.56867086 115.22090346 213.82773479 117.42382812 215.08447266 C123.48973387 218.56885413 129.38297923 222.21263787 135.1418457 226.18530273 C130.06026467 237.67409463 121.71180589 247.13292757 113.1418457 256.18530273 C112.32200195 257.06959961 111.5021582 257.95389648 110.6574707 258.86499023 C84.74720326 285.92512161 47.24673839 301.42557308 10.0480957 302.40014648 C-3.2236311 302.62423292 -15.96595787 302.59106437 -28.8581543 299.18530273 C-30.71827148 298.75024414 -30.71827148 298.75024414 -32.6159668 298.30639648 C-59.3081286 291.75667711 -82.21347777 278.14501843 -101.8581543 259.18530273 C-102.71022461 258.39639648 -103.56229492 257.60749023 -104.44018555 256.79467773 C-122.88597908 239.24938751 -135.50273233 215.30102772 -142.2331543 190.93530273 C-142.47179199 190.07356445 -142.71042969 189.21182617 -142.95629883 188.32397461 C-146.09348265 176.28335877 -147.21271521 164.2589842 -147.17382812 151.85400391 C-147.17066111 149.75232261 -147.19427507 147.65204692 -147.21948242 145.55053711 C-147.26343206 136.0611518 -146.05917499 127.4220409 -143.8581543 118.18530273 C-143.68501709 117.41387939 -143.51187988 116.64245605 -143.33349609 115.84765625 C-137.37636436 89.93026493 -124.24496784 66.30175173 -105.8581543 47.18530273 C-105.38539063 46.68144043 -104.91262695 46.17757812 -104.42553711 45.65844727 C-84.9645421 24.96015577 -60.2230613 11.36833574 -32.8581543 4.18530273 C-31.70444336 3.87592773 -30.55073242 3.56655273 -29.36206055 3.24780273 C-19.51375776 0.69044071 -10.14392673 -0.00112773 0 0 Z " fill="#FEFEFE" transform="translate(251.858154296875,104.814697265625)"/>
<path d="M0 0 C2.63350352 1.80707581 3.86810394 4.00693248 5.546875 6.71337891 C26.10293713 38.43383442 57.55912403 59.7260371 93.859375 69.27587891 C95.00148437 69.58525391 96.14359375 69.89462891 97.3203125 70.21337891 C131.19029522 79.08611997 168.92063153 72.6282113 199.859375 57.27587891 C200.87128906 56.78345703 201.88320313 56.29103516 202.92578125 55.78369141 C215.68951844 49.20674386 226.57935599 40.18875438 236.859375 30.27587891 C237.63796875 29.56044922 238.4165625 28.84501953 239.21875 28.10791016 C247.97843737 19.82969497 255.05395842 9.8041169 260.859375 -0.72412109 C265.02522946 -0.12845572 267.99957002 1.27857396 271.62890625 3.38134766 C272.75248535 4.02789307 273.87606445 4.67443848 275.03369141 5.34057617 C276.24651546 6.0480122 277.45924084 6.75561742 278.671875 7.46337891 C279.93374753 8.19304298 281.19595929 8.92212068 282.45849609 9.65063477 C286.26425368 11.84970441 290.06223146 14.06197985 293.859375 16.27587891 C294.92881348 16.89817383 295.99825195 17.52046875 297.10009766 18.16162109 C301.03058578 20.44907267 304.95987516 22.73849708 308.88427734 25.03637695 C314.18186546 28.13806216 319.49049305 31.21918221 324.81640625 34.27197266 C325.40041199 34.60713394 325.98441772 34.94229523 326.58612061 35.28761292 C329.40381835 36.90462885 332.22305016 38.51881733 335.04541016 40.12768555 C341.14488976 43.62638404 347.07206207 47.28046514 352.859375 51.27587891 C351.49924558 57.33513754 347.48666424 61.40969404 342.47436523 64.9699707 C335.65920728 69.21205234 328.7658236 73.2917846 321.796875 77.27587891 C320.0804882 78.26159502 318.36410372 79.24731521 316.64785767 80.23327637 C314.88269925 81.24693715 313.11693168 82.25953023 311.35107422 83.27197266 C305.84742405 86.42880637 300.35406103 89.60347842 294.859375 92.77587891 C292.69013934 94.02724196 290.52086844 95.27854393 288.3515625 96.52978516 C284.04335849 99.01518792 279.73614711 101.50229867 275.4296875 103.99072266 C263.62308016 110.81090528 251.799105 117.59911151 239.95465088 124.35324097 C231.89674247 128.94982137 223.86521859 133.58915665 215.859375 138.27587891 C203.68493476 145.40235565 191.43692362 152.39693604 179.18017578 159.38037109 C176.01653261 161.18617359 172.85700461 162.99891973 169.69921875 164.81494141 C168.75006592 165.36005371 167.80091309 165.90516602 166.82299805 166.46679688 C165.08259922 167.46672372 163.34309639 168.46821266 161.60473633 169.47167969 C147.38892244 177.62827005 134.92269919 181.66316062 118.41796875 178.64697266 C107.17095738 175.1279691 97.13535491 168.24122063 87.10644531 162.21386719 C81.76770472 159.02748201 76.37533907 155.93529842 70.984375 152.83837891 C68.79934764 151.57949258 66.61445235 150.32037701 64.4296875 149.06103516 C63.34461914 148.43600098 62.25955078 147.8109668 61.14160156 147.16699219 C55.71277554 144.0390774 50.28620944 140.90724727 44.859375 137.77587891 C43.78558594 137.15648437 42.71179688 136.53708984 41.60546875 135.89892578 C36.21249984 132.78809558 30.82031136 129.67592742 25.4296875 126.56103516 C13.62308016 119.74085253 1.799105 112.9526463 -10.04534912 106.19851685 C-19.07481669 101.04771697 -28.06862819 95.83875225 -37.03442383 90.57788086 C-42.48952608 87.38335335 -47.96640828 84.23264335 -53.47265625 81.12744141 C-54.729841 80.4165451 -55.98700252 79.7056077 -57.24414062 78.99462891 C-59.63859828 77.64081897 -62.03735393 76.29589739 -64.43945312 74.95556641 C-75.35052197 68.78982523 -85.01556999 62.78107947 -92.140625 52.27587891 C-89.75644868 49.64274852 -87.22210873 48.02020432 -84.14453125 46.26416016 C-83.12536621 45.67948975 -82.10620117 45.09481934 -81.05615234 44.49243164 C-79.94965332 43.86409424 -78.8431543 43.23575684 -77.703125 42.58837891 C-76.53832211 41.92223427 -75.37377603 41.25564037 -74.20947266 40.58862305 C-71.1399902 38.83169261 -68.06728514 37.08048272 -64.99359131 35.33093262 C-60.2487367 32.6292772 -55.50797784 29.92043054 -50.76647949 27.21289062 C-49.01419546 26.21256282 -47.26149301 25.21297074 -45.50878906 24.21337891 C-36.65255548 19.15899116 -27.83505297 14.04012893 -19.04052734 8.87915039 C-17.25232967 7.8310441 -15.46114698 6.78800787 -13.66650391 5.75097656 C-11.96727268 4.75863604 -10.28198497 3.74206699 -8.61083984 2.703125 C-7.82016113 2.22568848 -7.02948242 1.74825195 -6.21484375 1.25634766 C-5.52350342 0.82604248 -4.83216309 0.3957373 -4.11987305 -0.04760742 C-2.140625 -0.72412109 -2.140625 -0.72412109 0 0 Z " fill="#782379" transform="translate(125.140625,332.72412109375)"/>
<path d="M0 0 C0.97710937 -0.00773438 1.95421875 -0.01546875 2.9609375 -0.0234375 C23.10696381 0.03014236 41.4619404 8.36161285 55.84375 22.31640625 C59.99294264 26.54703966 63.37230405 31.3039888 66.625 36.25 C63.80856986 39.27837983 61.0529552 41.3574732 57.4609375 43.39453125 C55.92179687 44.27431641 55.92179687 44.27431641 54.3515625 45.171875 C53.24554688 45.79578125 52.13953125 46.4196875 51 47.0625 C49.8329447 47.72718268 48.66628477 48.39255999 47.5 49.05859375 C45.0780191 50.44100803 42.65436846 51.82042515 40.22949219 53.19775391 C34.67860299 56.35394139 29.15317099 59.55425009 23.625 62.75 C21.45845276 64.00020698 19.29178569 65.25020633 17.125 66.5 C16.0525 67.11875 14.98 67.7375 13.875 68.375 C10.625 70.25 7.375 72.125 4.125 74 C3.05209717 74.6189917 1.97919434 75.2379834 0.8737793 75.87573242 C-1.28878583 77.1233474 -3.45138339 78.37090616 -5.61401367 79.6184082 C-11.09370371 82.77943449 -16.57279358 85.94149309 -22.05078125 89.10546875 C-27.45065153 92.22415481 -32.85296252 95.33858028 -38.25634766 98.45117188 C-41.3749975 100.24999856 -44.49032062 102.05449259 -47.60546875 103.859375 C-49.52852523 104.96895904 -51.45169641 106.07834434 -53.375 107.1875 C-54.25969971 107.70207764 -55.14439941 108.21665527 -56.0559082 108.74682617 C-56.8624585 109.21064697 -57.66900879 109.67446777 -58.5 110.15234375 C-59.20382813 110.55960693 -59.90765625 110.96687012 -60.6328125 111.38647461 C-62.375 112.25 -62.375 112.25 -64.375 112.25 C-73.31295221 93.34958723 -77.74782122 72.01687142 -70.5690918 51.62866211 C-69.8777351 49.8199708 -69.12720132 48.03424536 -68.375 46.25 C-67.91738281 45.16332031 -67.45976562 44.07664063 -66.98828125 42.95703125 C-63.72417651 35.90119936 -59.5176754 30.05329576 -54.375 24.25 C-53.86710937 23.64800781 -53.35921875 23.04601562 -52.8359375 22.42578125 C-39.43955713 7.68976284 -19.60236561 -0.15394528 0 0 Z " fill="#B14796" transform="translate(254.375,180.75)"/>
<path d="M0 0 C2.54174805 1.25244141 2.54174805 1.25244141 5.26171875 2.8515625 C6.28595947 3.448479 7.3102002 4.04539551 8.36547852 4.66040039 C9.46174561 5.30871826 10.5580127 5.95703613 11.6875 6.625 C13.42612704 7.64193744 15.16476177 8.658862 16.90385437 9.67500305 C18.10633028 10.37821666 19.30823792 11.08240281 20.50959778 11.78752136 C24.71858254 14.25752113 28.943525 16.69803547 33.1796875 19.12109375 C34.34546598 19.78888753 35.51123755 20.45669337 36.67700195 21.12451172 C38.87772441 22.38428924 41.07933667 23.64251406 43.28198242 24.89892578 C49.34770656 28.38368599 55.2410999 32.02731194 61 36 C55.29990955 50.89318643 40.99731173 61.36519998 27 68 C8.71815177 75.98214798 -12.66707756 76.49438221 -31.5 69.875 C-46.65129726 63.68414736 -60.68381826 52.23798724 -69 38 C-67.7220314 34.1660942 -66.52549332 33.89363185 -63.03125 31.99609375 C-61.99387695 31.42552246 -60.95650391 30.85495117 -59.88769531 30.26708984 C-58.76975586 29.6633252 -57.65181641 29.05956055 -56.5 28.4375 C-54.19192436 27.16939462 -51.88463367 25.89985951 -49.578125 24.62890625 C-48.44697266 24.00773926 -47.31582031 23.38657227 -46.15039062 22.74658203 C-42.14169551 20.5241545 -38.18818276 18.21943423 -34.25 15.875 C-32.9271819 15.09488492 -31.60426379 14.31493941 -30.28125 13.53515625 C-27.95734954 12.16269974 -25.63834632 10.7829418 -23.32421875 9.39404297 C-20.47393374 7.68669885 -17.61286309 5.99864867 -14.75 4.3125 C-13.85571289 3.77028809 -12.96142578 3.22807617 -12.04003906 2.66943359 C-11.19666992 2.17652832 -10.35330078 1.68362305 -9.484375 1.17578125 C-8.36627441 0.50929565 -8.36627441 0.50929565 -7.22558594 -0.1706543 C-4.33691366 -1.24709349 -2.92128505 -0.93327767 0 0 Z " fill="#782379" transform="translate(260,257)"/>
<path d="M0 0 C4.95 0 9.9 0 15 0 C15 3.96 15 7.92 15 12 C20.94 12 26.88 12 33 12 C33 8.04 33 4.08 33 0 C37.95 0 42.9 0 48 0 C48 3.96 48 7.92 48 12 C51.96 12 55.92 12 60 12 C60 16.95 60 21.9 60 27 C56.04 27 52.08 27 48 27 C48 33.27 48 39.54 48 46 C51.96 46 55.92 46 60 46 C60 50.62 60 55.24 60 60 C56.04 60 52.08 60 48 60 C48 64.29 48 68.58 48 73 C43.05 73 38.1 73 33 73 C33 69.04 33 65.08 33 61 C27.06 61 21.12 61 15 61 C15 64.96 15 68.92 15 73 C10.05 73 5.1 73 0 73 C0 68.71 0 64.42 0 60 C-3.96 60 -7.92 60 -12 60 C-12 55.38 -12 50.76 -12 46 C-8.04 46 -4.08 46 0 46 C0 39.73 0 33.46 0 27 C-3.96 27 -7.92 27 -12 27 C-12 22.38 -12 17.76 -12 13 C-8.04 13 -4.08 13 0 13 C0 8.71 0 4.42 0 0 Z " fill="#FDFCFD" transform="translate(390,220)"/>
<path d="M0 0 C5.94 0 11.88 0 18 0 C18 6.27 18 12.54 18 19 C12.06 19 6.12 19 0 19 C0 12.73 0 6.46 0 0 Z " fill="#9A348B" transform="translate(405,247)"/>
</svg>
