<?xml version="1.0" encoding="UTF-8"?>
<svg version="1.1" xmlns="http://www.w3.org/2000/svg" width="512" height="512">
<path d="M0 0 C147.84 0 295.68 0 448 0 C448 13.78345149 448 13.78345149 447.39371586 20.30466652 C447.29539539 21.43273584 447.29539539 21.43273584 447.19508865 22.58359444 C446.97708867 25.07016529 446.75163753 27.55599957 446.52613831 30.04190063 C446.36553327 31.8558779 446.20539314 33.66989638 446.04567474 35.48395193 C445.60768776 40.44325489 445.16314246 45.40195096 444.71748245 50.36056948 C444.23713838 55.71813229 443.7629325 61.07623885 443.28796387 66.4342804 C442.35748861 76.92003027 441.42143513 87.40527503 440.48356313 97.89036562 C439.39128894 110.10445063 438.30492182 122.31905887 437.21888613 134.53369991 C435.28088576 156.32850446 433.33808482 178.12287831 431.39233398 199.91699219 C429.50481129 221.05899978 427.61981232 242.20123004 425.73803711 263.34375 C425.62210969 264.64623434 425.50618226 265.94871869 425.38674188 267.29067226 C424.92075364 272.52631112 424.45477982 277.76195128 423.98882595 282.9975932 C420.41758953 323.1248318 416.84411361 363.2518727 413.26276398 403.37821007 C412.88722414 407.58599868 412.51192443 411.7938086 412.13684654 416.00163841 C411.70489284 420.84736667 411.27242487 425.69304875 410.8395431 430.53869419 C410.68321912 432.28949489 410.52707183 434.04031139 410.37112135 435.7911454 C409.62214669 444.19847099 408.86366784 452.60349074 408 461 C402.51563023 463.13067066 397.04913988 464.92936809 391.37768555 466.48583984 C390.1353256 466.83151741 390.1353256 466.83151741 388.86786747 467.18417835 C386.12507207 467.94646078 383.3808999 468.70366035 380.63671875 469.4609375 C378.67635769 470.0048917 376.7160938 470.54919619 374.75592041 471.09382629 C369.49153653 472.55561097 364.22598425 474.01314105 358.96012497 475.46960068 C350.17253426 477.90076183 341.3865158 480.33760448 332.60048103 482.77438164 C330.37164826 483.39249146 328.14277 484.01043727 325.91384697 484.62822151 C311.55350049 488.60902336 297.20340621 492.62370774 282.86766624 496.69224548 C280.20930503 497.44641249 277.55056649 498.19923282 274.89167786 498.95153809 C274.03904956 499.19281055 273.18642126 499.43408302 272.30795574 499.68266678 C270.62549671 500.15875353 268.94302783 500.63480546 267.26054859 501.11082077 C262.42694807 502.47935912 257.59603054 503.85692323 252.76680946 505.24083042 C249.79668737 506.08966994 246.82420325 506.92998473 243.85100555 507.76798058 C242.49388784 508.15246497 241.13779241 508.54058082 239.78287506 508.93274879 C237.9425636 509.46504488 236.09818244 509.98320934 234.25366211 510.50073242 C232.72061684 510.93817024 232.72061684 510.93817024 231.15660095 511.38444519 C224.24626753 512.73199879 218.55526524 511.92554207 211.91943359 509.99414062 C211.14763638 509.7786258 210.37583916 509.56311098 209.58065414 509.34106541 C207.01704762 508.62257743 204.45788221 507.88941278 201.8984375 507.15625 C200.05835893 506.63752724 198.21800948 506.11976453 196.37741089 505.60289001 C191.406591 504.20434281 186.4393872 502.79333401 181.47273254 501.38007736 C176.28957398 499.90752269 171.10321611 498.4463341 165.91699219 496.98461914 C159.48330959 495.17072255 153.04987686 493.3559682 146.61779785 491.53639221 C131.66954566 487.30856284 116.7100495 483.12268324 101.7421875 478.96484375 C99.7267886 478.40466089 97.71139748 477.84445 95.6960144 477.28421021 C87.9735264 475.13785101 80.25088182 472.99206377 72.52703857 470.85058594 C68.05698933 469.61105244 63.58783545 468.36834047 59.11932755 467.12326241 C57.48037413 466.66724367 55.84108392 466.21243349 54.20144272 465.75889397 C51.97751488 465.14364175 49.75474545 464.52437187 47.53222656 463.90405273 C46.28717346 463.55833725 45.04212036 463.21262177 43.75933838 462.85643005 C41 462 41 462 40 461 C39.72026095 458.89352156 39.50587162 456.77837229 39.31520081 454.66197205 C39.25269294 453.98176953 39.19018507 453.30156701 39.12578303 452.60075229 C38.9122514 450.26407636 38.70533349 447.9268589 38.49829102 445.58959961 C38.34293562 443.87296115 38.1872038 442.15635672 38.03113365 440.4397831 C37.59068466 435.58098778 37.15623863 430.72167022 36.722718 425.86225247 C36.34070377 421.58815121 35.9553969 417.31434917 35.5701316 413.04053992 C34.24077521 398.29197693 32.92290563 383.54239291 31.60644848 368.7926745 C31.1185779 363.32698623 30.63016373 357.86134669 30.14150238 352.39572906 C26.1243656 307.46420483 22.12242852 262.53134451 18.13599205 217.59708595 C17.78281097 213.61623667 17.42961782 209.63538846 17.07641602 205.65454102 C16.98877631 204.66674134 16.90113661 203.67894167 16.81084116 202.66120867 C15.36966216 186.41866883 13.92405333 170.17652613 12.47681277 153.93452538 C10.97193075 137.04477692 9.47101944 120.15467925 7.97398859 103.26423305 C7.14064336 93.86304109 6.30559191 84.46200787 5.46598625 75.06137276 C4.7577482 67.13152347 4.05308685 59.20136672 3.3531177 51.27078307 C2.9972522 47.24010918 2.63970802 43.20960348 2.2775135 39.17949295 C1.94578302 35.48791395 1.61900094 31.79593022 1.29601628 28.10357606 C1.12400018 26.15141011 0.9468243 24.19970088 0.76940769 22.24801832 C0.66697272 21.06599048 0.56453774 19.88396263 0.45899868 18.66611576 C0.36970669 17.66112067 0.2804147 16.65612558 0.1884169 15.6206761 C-0.08219886 10.42044185 0 5.2072708 0 0 Z " fill="#2196F3" transform="translate(32,0)"/>
<path d="M0 0 C93.72 0 187.44 0 284 0 C282.76782054 16.01833292 281.50212905 32.01460022 280.01171875 48.0078125 C279.82627443 50.01457471 279.64102812 52.02135523 279.45596313 54.02815247 C279.06793705 58.23247937 278.67881066 62.43670215 278.28872681 66.64083862 C277.36979599 76.54621942 276.45728466 86.45219269 275.54437065 96.3581295 C275.34317107 98.54107972 275.141904 100.72402372 274.94056892 102.90696144 C272.88341204 125.21144512 270.8788048 147.52027416 268.90345764 169.83215332 C268.16674569 178.14504582 267.42088883 186.4570965 266.67247772 194.76894188 C266.13895336 200.69458941 265.6060592 206.62029369 265.07320404 212.54600143 C264.94174839 214.00776809 264.81026371 215.46953214 264.67874908 216.93129349 C262.99289568 235.67152978 261.32354216 254.41259148 259.84912109 273.17089844 C259.74809082 274.43192383 259.64706055 275.69294922 259.54296875 276.9921875 C259.46071045 278.04776855 259.37845215 279.10334961 259.29370117 280.19091797 C259.01616301 282.84541012 258.57156798 285.39456022 258 288 C249.12905025 291.1212601 240.06500309 293.51838299 231 296 C228.12423106 296.78889943 225.24922628 297.58049843 222.375 298.375 C221.64216797 298.57738281 220.90933594 298.77976562 220.15429688 298.98828125 C214.94041156 300.43732355 209.74862183 301.95388149 204.55957031 303.48925781 C193.65420005 306.71218737 182.70885995 309.70063255 171.6862793 312.49755859 C166.63441152 313.78228658 161.6028883 315.08863498 156.609375 316.5859375 C155.79968262 316.82618652 154.98999023 317.06643555 154.15576172 317.31396484 C152.70503811 317.75033108 151.25813427 318.1997679 149.81689453 318.66650391 C141.2623834 321.22664435 133.65922338 318.82828445 125.4375 316.1875 C119.28267349 314.27429787 113.14077982 312.45104995 106.875 310.9375 C98.95836277 309.01885859 91.12279284 306.84805031 83.28222656 304.64111328 C79.52390906 303.58534288 75.7617632 302.54341176 72 301.5 C70.50129511 301.08335841 69.0025972 300.66669173 67.50390625 300.25 C64.49184981 299.41313604 61.47875159 298.58017044 58.46484375 297.75 C50.79479443 295.63446574 43.1368165 293.48286355 35.5 291.25 C34.41319946 290.93385742 34.41319946 290.93385742 33.30444336 290.61132812 C28.24081854 289.12040927 28.24081854 289.12040927 26 288 C25.00567209 285.01701626 24.7112476 282.59347324 24.45922852 279.46899414 C24.36565567 278.33252945 24.27208282 277.19606476 24.17567444 276.02516174 C24.07774094 274.79095993 23.97980743 273.55675812 23.87890625 272.28515625 C23.71860027 270.32750119 23.55829231 268.36984629 23.3978796 266.41219997 C23.17302933 263.65699978 22.95155694 260.90153204 22.73010254 258.14605713 C22.24277851 252.08787058 21.74903175 246.03020948 21.25390625 239.97265625 C21.14825348 238.6735733 21.04260071 237.37449036 20.93374634 236.03604126 C20.25233463 227.75692519 19.50066934 219.48921452 18.58070374 211.23292542 C18.5037175 210.51724899 18.42673126 209.80157257 18.34741211 209.06420898 C18.27993271 208.46591782 18.21245331 207.86762665 18.14292908 207.25120544 C17.92639423 203.84067183 18 200.4174006 18 197 C36.81 197 55.62 197 75 197 C75.474375 201.95 75.94875 206.9 76.4375 212 C76.58501709 213.52496094 76.73253418 215.04992187 76.88452148 216.62109375 C77.77997608 226.07264418 78.46499362 235.52137734 79 245 C79.65121826 245.10666992 80.30243652 245.21333984 80.97338867 245.32324219 C88.21439068 246.56715823 95.2342729 248.29358727 102.3125 250.25 C103.43245361 250.55429932 104.55240723 250.85859863 105.70629883 251.17211914 C111.25795492 252.68321384 116.80077901 254.22255676 122.3359375 255.79296875 C123.81839966 256.2091748 123.81839966 256.2091748 125.33081055 256.63378906 C127.1835174 257.15503605 129.03410983 257.68388133 130.88208008 258.22167969 C139.33885505 260.59579693 145.97700537 260.03108444 154.375 257.8125 C155.25349609 257.58691406 156.13199219 257.36132812 157.03710938 257.12890625 C163.24408641 255.51554038 169.39351271 253.73766608 175.53320312 251.88720703 C181.27716913 250.17188196 187.06187165 248.65018506 192.875 247.1875 C194.16954102 246.85878906 194.16954102 246.85878906 195.49023438 246.5234375 C196.29525391 246.32363281 197.10027344 246.12382812 197.9296875 245.91796875 C198.64366699 245.74031982 199.35764648 245.5626709 200.09326172 245.37963867 C202 245 202 245 205 245 C205.06682228 244.11958038 205.06682228 244.11958038 205.13499451 243.22137451 C206.30856097 227.97686657 207.84151768 212.80031131 209.65942383 197.61962891 C210.07048881 194.18321525 210.47410795 190.74597981 210.87695312 187.30859375 C211.13759409 185.10672028 211.39864548 182.90489534 211.66015625 180.703125 C211.77996353 179.6834967 211.89977081 178.66386841 212.02320862 177.61334229 C212.13680222 176.67005066 212.25039581 175.72675903 212.36743164 174.75488281 C212.46576797 173.93014465 212.56410431 173.10540649 212.66542053 172.25567627 C213 170 213 170 214 166 C148.33 166 82.66 166 15 166 C10.35714286 127.69642857 10.35714286 127.69642857 10 113 C26.77809183 112.26761533 43.53115975 111.82840147 60.32421875 111.71875 C62.58469961 111.70086979 64.84517729 111.68258352 67.10565186 111.66392517 C71.8571136 111.62528691 76.60858423 111.58879434 81.3600769 111.5541687 C93.73492008 111.46366747 106.109644 111.35845883 118.484375 111.25390625 C119.70980452 111.24366991 120.93523403 111.23343357 122.19779778 111.22288704 C144.61218686 111.03483849 167.02481881 110.77032502 189.4375 110.4375 C190.1932217 110.42633148 190.94894341 110.41516296 191.72756577 110.40365601 C200.48512251 110.27408843 209.24260917 110.14038215 218 110 C218.06058594 108.84242188 218.12117187 107.68484375 218.18359375 106.4921875 C218.26805502 104.95311543 218.35270018 103.41405345 218.4375 101.875 C218.47681641 101.11445313 218.51613281 100.35390625 218.55664062 99.5703125 C218.59853516 98.82265625 218.64042969 98.075 218.68359375 97.3046875 C218.73858032 96.2835083 218.73858032 96.2835083 218.79467773 95.24169922 C219.04791962 92.47681576 219.54355333 89.73868005 220 87 C220.66 75.78 221.32 64.56 222 53 C150.06 53 78.12 53 4 53 C0 9 0 9 0 0 Z " fill="#F9F9F9" transform="translate(114,94)"/>
</svg>
