<?xml version="1.0" encoding="UTF-8"?>
<svg version="1.1" xmlns="http://www.w3.org/2000/svg" width="512" height="512">
<path d="M0 0 C0.82628906 0.21495117 1.65257812 0.42990234 2.50390625 0.65136719 C66.26305718 17.55107874 122.4134272 61.49983643 155.55859375 118.33984375 C169.83513206 143.31159521 180.19118785 169.78001127 186 198 C186.21027832 199.00111816 186.42055664 200.00223633 186.63720703 201.03369141 C192.58906145 230.75526369 193.13459514 265.26744352 187 295 C186.69400879 296.53479004 186.69400879 296.53479004 186.38183594 298.10058594 C176.72503043 345.56933733 155.68640845 387.98489559 122.98828125 423.7890625 C121.4039618 425.55080083 119.90609002 427.33088787 118.4375 429.1875 C115.91708556 432.09567051 113.25663166 434.492755 110.328125 436.9765625 C108.67805539 438.41068341 107.06666082 439.88986065 105.484375 441.3984375 C82.91534231 462.89575634 42.67040209 493.27450021 10.375 494.5625 C6.34994773 494.25808428 3.3094542 493.42155185 0 491 C-3.00880065 486.23741876 -3.42421605 482.0816831 -3.36889648 476.58642578 C-3.3745462 475.35082161 -3.3745462 475.35082161 -3.38031006 474.09025574 C-3.38672597 472.30772156 -3.38642808 470.52515314 -3.38012505 468.74261856 C-3.37096779 465.90629776 -3.38129542 463.07063169 -3.39674377 460.23434448 C-3.43668878 452.17219024 -3.43806394 444.11008837 -3.43579102 436.04785156 C-3.43573943 431.10649901 -3.45515513 426.16549575 -3.48512459 421.22423935 C-3.49580721 418.4570384 -3.48389937 415.69054709 -3.47129822 412.92337036 C-3.50718435 395.49271393 -6.10814117 378.63801089 -18.64453125 365.59375 C-20 364 -20 364 -20 362 C-19.21052979 361.87471924 -18.42105957 361.74943848 -17.60766602 361.62036133 C17.49783644 355.98538769 50.97915459 347.65790366 74 318 C86.27005226 300.36179988 92.58223032 280.22576872 95 259 C95.11085938 258.07832031 95.22171875 257.15664063 95.3359375 256.20703125 C98.30819603 227.08693075 94.29716115 197.7902603 75.625 174.25 C73.38982267 171.55452265 73.38982267 171.55452265 71 169 C71.3771635 164.77576879 72.02399298 160.74918005 73 156.625 C76.84005687 139.94654406 74.91127419 123.24103114 69.90234375 107.0234375 C69.10599008 104.35513559 68.49365687 101.73801437 68 99 C45.35309683 100.73807848 19.71598255 108.86614813 2.34765625 124.3671875 C-2.95143835 126.95181007 -7.38162 125.22884282 -12.9375 123.875 C-15.1906581 123.37422603 -17.44456592 122.87681313 -19.69921875 122.3828125 C-20.78509277 122.13950195 -21.8709668 121.89619141 -22.98974609 121.64550781 C-28.94645129 120.36817379 -34.94235068 119.63069957 -41 119 C-41.96164062 118.88914062 -42.92328125 118.77828125 -43.9140625 118.6640625 C-66.4068433 116.46819736 -90.76692033 116.94091771 -112.69921875 122.6640625 C-130.58051495 127.28297535 -130.58051495 127.28297535 -137.65942383 123.17358398 C-140.26958665 121.36614916 -142.74570402 119.43672486 -145.19238281 117.41455078 C-148.09203209 115.14543031 -151.24258426 113.44780714 -154.5 111.75 C-155.41313965 111.26696411 -155.41313965 111.26696411 -156.34472656 110.77416992 C-170.39520305 103.53205757 -184.25713961 99.92461931 -200 99 C-204.76379498 115.7647429 -204.76379498 115.7647429 -207 133 C-207.04125 133.68964844 -207.0825 134.37929687 -207.125 135.08984375 C-207.39551537 144.1690157 -206.54529779 153.84557813 -202.75 162.125 C-201.96875 164.50390625 -201.96875 164.50390625 -202 167 C-203.6815037 169.83944829 -205.51430519 172.19932249 -207.64624023 174.70068359 C-226.57133435 196.9063834 -229.66064524 226.34901121 -227.53540039 254.39282227 C-225.01763767 282.43016462 -216.18325854 308.78133223 -196 329 C-195.32710938 329.68449219 -194.65421875 330.36898438 -193.9609375 331.07421875 C-172.03971776 351.96916416 -140.81224773 357.87246172 -112 362 C-113.47157754 365.06528925 -115.08494646 367.36420644 -117.3125 369.9375 C-122.75418245 376.83029777 -125.83819753 384.75800087 -126.4375 393.5 C-126.8203125 395.90234375 -126.8203125 395.90234375 -128 398 C-141.06503807 405.23422185 -158.2949776 405.8453102 -172.76171875 403.3515625 C-188.47684281 398.54458338 -198.09567049 386.68751992 -206.6953125 373.49609375 C-213.91222086 362.4671923 -223.78275506 355.06517348 -236.5 351.25 C-242.31434555 350.66856545 -247.66481416 350.2463557 -253 353 C-251.3867851 359.09436738 -246.69917844 362.00388625 -241.85546875 365.5859375 C-228.51033429 375.54220244 -220.76264802 388.2079332 -214.4375 403.3125 C-211.75720022 409.66954396 -208.80932567 414.95780171 -204 420 C-203.35675781 420.68320312 -202.71351563 421.36640625 -202.05078125 422.0703125 C-190.79429044 433.01470098 -175.45747694 438.08738144 -160 439 C-159.34257812 439.04125 -158.68515625 439.0825 -158.0078125 439.125 C-152.19806429 439.30038863 -146.50066827 438.51798391 -140.75952148 437.71166992 C-136.7987677 437.16597903 -132.99339997 436.9604998 -129 437 C-128.92379987 443.72600022 -128.87133708 450.45188868 -128.83520508 457.17822266 C-128.82013884 459.46537435 -128.79968203 461.75249725 -128.77368164 464.03955078 C-128.73720394 467.33112707 -128.72025166 470.62232062 -128.70703125 473.9140625 C-128.68380547 475.44252304 -128.68380547 475.44252304 -128.66011047 477.00186157 C-128.65883416 482.41222018 -128.8625971 486.36737387 -132 491 C-136.98221936 494.64552636 -142.06331919 494.64337408 -148 494 C-152.1041723 492.86900965 -155.9610384 491.28982562 -159.875 489.625 C-160.96635254 489.17237793 -162.05770508 488.71975586 -163.18212891 488.25341797 C-191.50609511 476.33166692 -217.07244961 460.60815819 -239.421875 439.40234375 C-241.29033602 437.6612778 -243.1522291 436.0300601 -245.125 434.41796875 C-247.4262897 432.48250907 -249.33247808 430.66593409 -251.25 428.375 C-253.97902303 425.16227705 -256.8029436 422.0737833 -259.6875 419 C-270.24071382 407.3898634 -279.07758426 394.51453524 -287 381 C-287.46905762 380.20948242 -287.93811523 379.41896484 -288.42138672 378.60449219 C-308.92589543 343.73398248 -321.88240937 302.59935966 -322.23828125 261.9453125 C-322.2480751 261.01400513 -322.25786896 260.08269775 -322.26795959 259.12316895 C-322.44066379 238.43649442 -322.29789334 218.32971768 -318 198 C-317.78037598 196.95811523 -317.56075195 195.91623047 -317.33447266 194.84277344 C-306.49523656 145.14951694 -281.76853974 102.74241231 -247 66 C-246.36191406 65.319375 -245.72382813 64.63875 -245.06640625 63.9375 C-240.11767914 58.81076113 -234.56540738 54.43393955 -229 50 C-227.90213368 49.11093642 -226.80448347 48.22160594 -225.70703125 47.33203125 C-192.30348881 20.44415909 -152.30231297 2.25618315 -110 -5 C-109.06671875 -5.16226074 -108.1334375 -5.32452148 -107.171875 -5.49169922 C-71.81115352 -11.34288418 -34.5576119 -9.13607062 0 0 Z " fill="#000000" transform="translate(322,13)"/>
</svg>
