<?xml version="1.0" encoding="UTF-8"?>
<svg version="1.1" xmlns="http://www.w3.org/2000/svg" width="512" height="512">
<path d="M0 0 C149.49 0 298.98 0 453 0 C451.84371775 23.12564505 451.84371775 23.12564505 451.09038734 33.62488115 C451.0348693 34.4022294 450.97935126 35.17957765 450.92215085 35.98048191 C450.86453541 36.78665524 450.80691996 37.59282857 450.74755859 38.4234314 C450.62349042 40.18119464 450.49960228 41.9389706 450.37587547 43.69675791 C450.03987037 48.46298529 449.70132302 53.229029 449.36230373 57.9950428 C448.99543266 63.1590295 448.63096845 68.32318619 448.26617432 73.48731995 C447.55321067 83.57465947 446.83799929 93.66183837 446.12192488 103.7489575 C445.54013307 111.94489083 444.95910123 120.1408777 444.37860107 128.33690262 C444.29576445 129.50643829 444.21292783 130.67597396 444.127581 131.8809501 C443.95927743 134.25717597 443.7909747 136.6334019 443.6226728 139.00962789 C442.04808476 161.23945762 440.47083557 183.46909793 438.89274383 205.69867916 C437.44877453 226.0400909 436.00804918 246.38173088 434.56885505 266.72348098 C433.0895495 287.63178715 431.60813839 308.53994314 430.12440681 329.4479357 C429.29200519 341.17821674 428.46043047 352.90855499 427.63104248 364.63904953 C426.92585488 374.61254864 426.2186729 384.58590387 425.50889444 394.55907737 C425.14682444 399.64732851 424.78568025 404.73564093 424.42700958 409.82413292 C424.09884457 414.47948996 423.76805304 419.13465257 423.43514562 423.78967281 C423.31504859 425.47550625 423.19592096 427.16140908 423.07784915 428.84738557 C422.91745825 431.13559755 422.75355975 433.42353231 422.58877563 435.7114315 C422.45345901 437.61921224 422.45345901 437.61921224 422.31540871 439.565534 C422.02286019 442.7510768 421.57270241 445.8540239 421 449 C414.52498552 451.1671575 408.04901069 453.33142949 401.57250977 455.49414062 C399.39262559 456.22239331 397.21292355 456.95119155 395.03344727 457.68066406 C379.95440789 462.7270358 364.84910401 467.68740614 349.7265625 472.6015625 C327.20103126 479.92137792 304.70464715 487.3283661 282.2130127 494.75158691 C278.09538288 496.11039644 273.977518 497.46849277 269.85964489 498.82656479 C261.35696311 501.63074415 252.85442138 504.43534828 244.35229492 507.24121094 C243.5905043 507.49254791 242.82871368 507.74388489 242.0438385 508.00283813 C240.97614731 508.3552507 240.97614731 508.3552507 239.8868866 508.71478271 C239.21706945 508.93305473 238.54725231 509.15132675 237.85713768 509.37621307 C236.19569564 509.93426853 234.55378475 510.54970588 232.91548157 511.17242432 C226.85901886 512.89158499 221.93177471 511.93544907 216.06420898 509.97827148 C215.40361103 509.76113621 214.74301308 509.54400093 214.062397 509.3202858 C211.87024356 508.59702228 209.68332719 507.85908931 207.49609375 507.12109375 C205.92688921 506.60020729 204.35736696 506.08027709 202.78755188 505.56123352 C199.42587506 504.44758133 196.06643574 503.32750481 192.70861816 502.20227051 C187.38953169 500.41986118 182.06580387 498.65162289 176.74121094 496.88574219 C170.33349198 494.7597005 163.92683946 492.63050611 157.52160454 490.49699211 C142.0510904 485.34447476 126.56150918 480.25058619 111.06814575 475.16726685 C106.93341833 473.81052586 102.79952675 472.45125225 98.66577148 471.09155273 C76.12610279 463.67985467 53.56397999 456.33730147 31 449 C26.59540379 387.88132221 22.20792583 326.76142187 17.83322024 265.6405974 C17.364915 259.09773016 16.89654721 252.55486741 16.42801666 246.0120163 C14.06403529 212.99973483 11.70400105 179.98717699 9.35463047 146.97385216 C9.16187678 144.26544493 8.96911109 141.55703856 8.77633667 138.84863281 C8.70500502 137.84640792 8.70500502 137.84640792 8.63223233 136.82393606 C7.86570022 126.05517243 7.09577988 115.28665367 6.32462405 104.51822027 C5.54424069 93.6197497 4.7676763 82.72101206 3.99464566 71.82201749 C3.57293699 65.877722 3.14963256 59.93355148 2.72204781 53.98967552 C2.32810068 48.51269503 1.93880296 43.0354039 1.55309093 37.55783749 C1.4127452 35.57616846 1.27073994 33.59461608 1.12686455 31.61320019 C0.93035115 28.90334208 0.74005547 26.19311139 0.55117798 23.48271179 C0.4945834 22.72270329 0.43798883 21.96269479 0.37967926 21.17965573 C-0.10347386 14.07684722 0 7.18025231 0 0 Z " fill="#FE7816" transform="translate(30,0)"/>
<path d="M0 0 C74.91 0 149.82 0 227 0 C225.84371775 23.12564505 225.84371775 23.12564505 225.09038734 33.62488115 C225.0348693 34.4022294 224.97935126 35.17957765 224.92215085 35.98048191 C224.86453541 36.78665524 224.80691996 37.59282857 224.74755859 38.4234314 C224.62349042 40.18119464 224.49960228 41.9389706 224.37587547 43.69675791 C224.03987037 48.46298529 223.70132302 53.229029 223.36230373 57.9950428 C222.99543266 63.1590295 222.63096845 68.32318619 222.26617432 73.48731995 C221.55321067 83.57465947 220.83799929 93.66183837 220.12192488 103.7489575 C219.54013307 111.94489083 218.95910123 120.1408777 218.37860107 128.33690262 C218.29576445 129.50643829 218.21292783 130.67597396 218.127581 131.8809501 C217.95927743 134.25717597 217.7909747 136.6334019 217.6226728 139.00962789 C216.04808476 161.23945762 214.47083557 183.46909793 212.89274383 205.69867916 C211.44877453 226.0400909 210.00804918 246.38173088 208.56885505 266.72348098 C207.0895495 287.63178715 205.60813839 308.53994314 204.12440681 329.4479357 C203.29200519 341.17821674 202.46043047 352.90855499 201.63104248 364.63904953 C200.92585488 374.61254864 200.2186729 384.58590387 199.50889444 394.55907737 C199.14682444 399.64732851 198.78568025 404.73564093 198.42700958 409.82413292 C198.09884457 414.47948996 197.76805304 419.13465257 197.43514562 423.78967281 C197.31504859 425.47550625 197.19592096 427.16140908 197.07784915 428.84738557 C196.91745825 431.13559755 196.75355975 433.42353231 196.58877563 435.7114315 C196.45345901 437.61921224 196.45345901 437.61921224 196.31540871 439.565534 C196.02286019 442.7510768 195.57270241 445.8540239 195 449 C188.52498552 451.1671575 182.04901069 453.33142949 175.57250977 455.49414062 C173.39262559 456.22239331 171.21292355 456.95119155 169.03344727 457.68066406 C153.95440789 462.7270358 138.84910401 467.68740614 123.7265625 472.6015625 C101.20103126 479.92137792 78.70464715 487.3283661 56.2130127 494.75158691 C52.09538288 496.11039644 47.977518 497.46849277 43.85964489 498.82656479 C35.35696311 501.63074415 26.85442138 504.43534828 18.35229492 507.24121094 C17.5905043 507.49254791 16.82871368 507.74388489 16.0438385 508.00283813 C15.33204437 508.23777985 14.62025024 508.47272156 13.8868866 508.71478271 C13.22093664 508.93305473 12.55498669 509.15132675 11.86885643 509.37621307 C10.14702548 509.95092583 8.43680611 510.56012109 6.72798157 511.17242432 C4 512 4 512 0 512 C0 486.26 0 460.52 0 434 C18.3777482 427.10834443 18.3777482 427.10834443 27.42333984 424.12182617 C28.44658859 423.78118134 29.46983734 423.4405365 30.52409363 423.08956909 C33.83545416 421.98790943 37.14819072 420.890452 40.4609375 419.79296875 C42.7875071 419.01954009 45.11397218 418.24579695 47.44033813 417.47175598 C53.51139317 415.45246845 59.58355948 413.43654593 65.65606689 411.42163086 C75.42323478 408.18038856 85.18899698 404.93491981 94.95415115 401.68761635 C98.3605927 400.5555458 101.76770739 399.42551916 105.17489624 398.29570007 C107.24601453 397.6076015 109.31711151 396.91943879 111.38818359 396.23120117 C112.33768387 395.91694687 113.28718414 395.60269257 114.26545715 395.27891541 C115.1285701 394.99171631 115.99168304 394.70451721 116.88095093 394.40861511 C118.00847306 394.03453412 118.00847306 394.03453412 119.15877342 393.65289593 C121.06002947 393.0210574 121.06002947 393.0210574 123 392 C123.49600593 389.07592596 123.49600593 389.07592596 123.68934631 385.45521545 C123.73935223 384.76312923 123.78935814 384.07104301 123.84087938 383.35798448 C124.0073143 381.0218337 124.15994356 378.68497971 124.31274414 376.34790039 C124.42881313 374.67921258 124.54573057 373.01058361 124.66343689 371.3420105 C124.98183186 366.79458025 125.28838734 362.24641794 125.59300542 357.69804692 C125.9138259 352.93895372 126.2457132 348.18063336 126.57652283 343.42222595 C127.20260012 334.39298393 127.81914157 325.36311777 128.43208736 316.3329758 C129.33010934 303.10932045 130.24247603 289.88665351 131.15467739 276.66396999 C131.28952061 274.70904011 131.42435781 272.7541098 131.55918884 270.79917908 C131.62507924 269.84405046 131.69096964 268.88892185 131.75885671 267.90484995 C132.1491995 262.2419468 132.53688291 256.57886942 132.92214024 250.91561806 C133.16283071 247.3794995 133.40467086 243.84346005 133.64666176 240.30743027 C133.75807575 238.67492268 133.86894363 237.04237771 133.97920609 235.40979195 C134.13058647 233.16897364 134.28391018 230.92829569 134.43763733 228.68763733 C134.52261003 227.43714128 134.60758272 226.18664522 134.69513035 224.89825535 C135.0579281 220.2592949 135.53699671 215.63003286 136 211 C66.04 211 -3.92 211 -76 211 C-76.66 200.11 -77.32 189.22 -78 178 C-78.6628063 171.33294843 -79.3289038 164.66622223 -80 158 C-80.33 150.74 -80.66 143.48 -81 136 C-7.41 136 66.18 136 142 136 C142 131.71 142 127.42 142 123 C142.17047097 119.47944567 142.36609501 115.97829438 142.62109375 112.46484375 C142.68531021 111.53829483 142.74952667 110.61174591 142.81568909 109.65711975 C142.95053953 107.72706954 143.08758725 105.79717163 143.22680664 103.86743164 C143.43928536 100.91267254 143.64294814 97.95739379 143.84570312 95.00195312 C143.97864892 93.11454679 144.11209409 91.22717555 144.24609375 89.33984375 C144.3065538 88.46069809 144.36701385 87.58155243 144.42930603 86.67576599 C144.48929276 85.85713577 144.54927948 85.03850555 144.61108398 84.19506836 C144.66215805 83.47927109 144.71323212 82.76347382 144.76585388 82.02598572 C145 80 145 80 146 76 C97.82 76 49.64 76 0 76 C0 50.92 0 25.84 0 0 Z " fill="#FE4B00" transform="translate(256,0)"/>
<path d="M0 0 C96.03 0 192.06 0 291 0 C288 47 288 47 287 60 C213.41 60 139.82 60 64 60 C65.90722905 83.54903018 65.90722905 83.54903018 68.1875 107.0625 C69.03097062 116.34067677 69 125.68356254 69 135 C138.96 135 208.92 135 281 135 C281 146.24990554 281 146.24990554 280.67851257 150.72787476 C280.60712067 151.74663193 280.53572876 152.7653891 280.46217346 153.8150177 C280.34300819 155.43871529 280.34300819 155.43871529 280.22143555 157.09521484 C280.13847229 158.26470169 280.05550903 159.43418854 279.97003174 160.63911438 C279.69557159 164.49663321 279.41613361 168.35377466 279.13671875 172.2109375 C278.94138348 174.93855616 278.74716439 177.66625398 278.55293274 180.39395142 C278.09179444 186.86148146 277.62717693 193.32875637 277.16118222 199.79593813 C276.5925342 207.68929713 276.02746344 215.58291112 275.46289062 223.4765625 C275.38790073 224.52504262 275.38790073 224.52504262 275.31139588 225.59470415 C275.11057806 228.40263765 274.90977296 231.21057205 274.70903218 234.01851106 C274.4611016 237.48637515 274.21299882 240.95422675 273.96450424 244.42205048 C272.25512743 268.27770672 270.60012208 292.13676592 269 316 C262.42607715 319.08478196 255.75847498 321.55554253 248.86816406 323.8347168 C247.79223495 324.19457672 246.71630585 324.55443665 245.60777283 324.92520142 C242.07851748 326.10430495 238.54714705 327.27692338 235.015625 328.44921875 C232.55171659 329.27034854 230.08791198 330.09178987 227.62420654 330.91352844 C222.47420517 332.63016574 217.32322363 334.34381193 212.17138672 336.05493164 C206.22300503 338.03065451 200.27641688 340.01170001 194.33077645 341.99565572 C188.59350478 343.90997947 182.85509471 345.82086234 177.11614227 347.73014259 C174.68059413 348.54070898 172.24531511 349.35208449 169.81031036 350.16428185 C166.41260299 351.29697446 163.01362363 352.42576277 159.61425781 353.5534668 C158.60844162 353.88956467 157.60262543 354.22566254 156.56632996 354.57194519 C155.63849197 354.87886292 154.71065399 355.18578064 153.75469971 355.5019989 C152.55131895 355.90209939 152.55131895 355.90209939 151.32362747 356.31028271 C146.56117553 357.72391097 143.64206651 358.21465241 138.85652161 356.60842896 C137.84284012 356.27468262 136.82915863 355.94093628 135.78475952 355.59707642 C134.68378937 355.22102264 133.58281921 354.84496887 132.44848633 354.45751953 C131.28054031 354.06912903 130.1125943 353.68073853 128.90925598 353.28057861 C125.71225305 352.21477985 122.51917764 351.13844128 119.32740235 350.05716181 C115.98660277 348.92811575 112.64133919 347.8124544 109.29655457 346.69528198 C103.68276169 344.81819705 98.07193768 342.93246782 92.46313477 341.04052734 C84.54849955 338.37080342 76.62878112 335.71642941 68.70791972 333.06524491 C57.52303421 329.32059577 46.34057535 325.56866383 35.16333008 321.80126953 C34.05628723 321.42926422 32.94924438 321.05725891 31.80865479 320.67398071 C30.80343277 320.33459473 29.79821075 319.99520874 28.76252747 319.64553833 C27.44765209 319.20251216 27.44765209 319.20251216 26.10621357 318.75053596 C24 318 24 318 22 317 C21.60522461 315.27612305 21.60522461 315.27612305 21.40234375 313.01171875 C21.32363037 312.16963867 21.24491699 311.32755859 21.16381836 310.45996094 C21.0891333 309.54504883 21.01444824 308.63013672 20.9375 307.6875 C20.85443604 306.75067383 20.77137207 305.81384766 20.68579102 304.84863281 C20.06162094 297.52061831 19.63394298 290.18706696 19.34155273 282.83862305 C19.18654429 279.06648653 18.94554336 275.35590414 18.47265625 271.609375 C17.94165534 266.43101904 18 261.20550981 18 256 C37.8 256 57.6 256 78 256 C79.18681726 259.56045177 79.09689832 262.43808337 79.0625 266.1875 C79.05347656 267.45980469 79.04445313 268.73210937 79.03515625 270.04296875 C79.02355469 271.01878906 79.01195312 271.99460937 79 273 C80.22904053 273.24403564 81.45808105 273.48807129 82.72436523 273.73950195 C88.77888613 275.08828684 94.55902939 277.12972458 100.41015625 279.16796875 C102.80509702 279.98703467 105.20028698 280.80537226 107.59570312 281.62304688 C111.33967937 282.90614053 115.08168065 284.1941744 118.81958008 285.49487305 C122.44896131 286.75514431 126.08499702 287.99432916 129.72265625 289.23046875 C130.83431656 289.62308395 131.94597687 290.01569916 133.09132385 290.42021179 C144.56092968 294.28164301 151.97937311 291.57537326 163.109375 287.74609375 C165.01039844 287.10398563 166.91142408 286.46188395 168.81258011 285.8201685 C172.12721305 284.69894877 175.43836824 283.56754596 178.75 282.4375 C182.71935968 281.08441558 186.68949576 279.73374116 190.66265869 278.39186096 C193.13091207 277.55749145 195.5972564 276.71744876 198.0614624 275.87120056 C199.17652161 275.49403397 200.29158081 275.11686737 201.44042969 274.72827148 C202.42001648 274.39375473 203.39960327 274.05923798 204.40887451 273.71458435 C207 273 207 273 211 273 C210.9902565 272.35897842 210.980513 271.71795685 210.97047424 271.05751038 C210.90785753 263.60537247 211.29886644 256.23893476 211.83984375 248.80859375 C211.92625626 247.58270035 212.01266876 246.35680695 212.10169983 245.09376526 C212.2840062 242.51786637 212.46815169 239.94209704 212.65405273 237.36645508 C212.9369043 233.44575726 213.21406083 229.52468895 213.49023438 225.60351562 C213.66893808 223.088518 213.8479637 220.57354322 214.02734375 218.05859375 C214.1508445 216.3175663 214.1508445 216.3175663 214.27684021 214.54136658 C214.35684769 213.43644363 214.43685516 212.33152069 214.51928711 211.19311523 C214.58812607 210.23590073 214.65696503 209.27868622 214.72789001 208.29246521 C215.09450411 203.85652309 215.55710238 199.42897619 216 195 C149.01 195 82.02 195 13 195 C11.35 171.24 9.7 147.48 8 123 C6.85541299 108.89145197 6.85541299 108.89145197 5.68359375 94.78515625 C4.60022412 81.61551494 3.86006233 68.41919773 3.06079102 55.22998047 C2.31569546 42.94315897 1.52315699 30.66420187 0.55834961 18.39233398 C0.48366455 17.40950439 0.40897949 16.4266748 0.33203125 15.4140625 C0.26733643 14.5988916 0.2026416 13.7837207 0.13598633 12.94384766 C-0.06311913 8.6335899 0 4.31485399 0 0 Z " fill="#E7E6EB" transform="translate(111,76)"/>
<path d="M0 0 C48.18 0 96.36 0 146 0 C143 47 143 47 142 60 C95.14 60 48.28 60 0 60 C0 40.2 0 20.4 0 0 Z " fill="#E2E1E6" transform="translate(256,76)"/>
<path d="M0 0 C19.8 0 39.6 0 60 0 C61.18681726 3.56045177 61.09689832 6.43808337 61.0625 10.1875 C61.05347656 11.45980469 61.04445312 12.73210937 61.03515625 14.04296875 C61.02355469 15.01878906 61.01195312 15.99460937 61 17 C62.22541504 17.24621094 63.45083008 17.49242187 64.71337891 17.74609375 C70.80776115 19.10406415 76.67081142 21.08015116 82.5859375 23.0625 C83.76467438 23.45445557 84.94341125 23.84641113 86.15786743 24.25024414 C88.63446575 25.07509952 91.1103153 25.90220608 93.58544922 26.73144531 C96.12154349 27.58040459 98.65826108 28.42692406 101.19677734 29.26855469 C104.86978614 30.48672898 108.54067311 31.71108498 112.2109375 32.9375 C113.34840424 33.31463135 114.48587097 33.6917627 115.6578064 34.08032227 C116.70965118 34.43408936 117.76149597 34.78785645 118.84521484 35.15234375 C119.77071136 35.46163818 120.69620789 35.77093262 121.64974976 36.08959961 C124 37 124 37 127 39 C127.36076355 41.5942688 127.36076355 41.5942688 127.34057617 44.91845703 C127.34034958 46.15959259 127.34012299 47.40072815 127.33988953 48.67947388 C127.32456848 50.03892372 127.30892047 51.39836991 127.29296875 52.7578125 C127.28737427 54.1450047 127.28310347 55.53220283 127.28010559 56.91940308 C127.26864497 60.57249281 127.23916786 64.22522534 127.20599365 67.87817383 C127.17531867 71.60493131 127.16160579 75.33174645 127.14648438 79.05859375 C127.11429886 86.37255877 127.06308839 93.68622936 127 101 C120.60356045 100.36937936 114.8450175 98.4633189 108.7722168 96.4140625 C107.66250015 96.04488708 106.55278351 95.67571167 105.40943909 95.29534912 C101.75407995 94.07766454 98.1016461 92.8514476 94.44921875 91.625 C91.90826561 90.77637418 89.36716834 89.92819246 86.82588196 89.08056641 C81.50782828 87.30573703 76.19127232 85.5264838 70.87573242 83.74414062 C64.04989506 81.45540046 57.22176495 79.17358353 50.39284039 76.89407349 C43.89001264 74.72340342 37.38833737 72.54928841 30.88671875 70.375 C29.64034826 69.95841125 28.39397778 69.54182251 27.10983849 69.11260986 C23.59961125 67.93869037 20.09009229 66.76267995 16.58081055 65.5859375 C15.00911606 65.06069489 15.00911606 65.06069489 13.40567017 64.52484131 C12.45382339 64.20517395 11.50197662 63.88550659 10.52128601 63.55615234 C9.69154613 63.27814789 8.86180624 63.00014343 8.00692272 62.7137146 C6 62 6 62 4 61 C3.60522461 59.27612305 3.60522461 59.27612305 3.40234375 57.01171875 C3.28427368 55.74859863 3.28427368 55.74859863 3.16381836 54.45996094 C3.05179077 53.08759277 3.05179077 53.08759277 2.9375 51.6875 C2.85443604 50.75067383 2.77137207 49.81384766 2.68579102 48.84863281 C2.06162094 41.52061831 1.63394298 34.18706696 1.34155273 26.83862305 C1.18654429 23.06648653 0.94554336 19.35590414 0.47265625 15.609375 C-0.05834466 10.43101904 0 5.20550981 0 0 Z " fill="#ECEBEF" transform="translate(129,332)"/>
<path d="M0 0 C23.43 0 46.86 0 71 0 C71 11.25086953 71 11.25086953 70.64868164 16.19311523 C70.53339867 17.85049965 70.53339867 17.85049965 70.41578674 19.54136658 C70.33142868 20.70205154 70.24707062 21.86273651 70.16015625 23.05859375 C70.07374374 24.28353043 69.98733124 25.5084671 69.89830017 26.77052307 C69.71582075 29.34818982 69.53167489 31.92573909 69.34594727 34.50317383 C69.06363174 38.42179113 68.78623848 42.34073218 68.50976562 46.25976562 C68.33101659 48.7760621 68.15198935 51.29233883 67.97265625 53.80859375 C67.8491555 55.54658485 67.8491555 55.54658485 67.72315979 57.31968689 C67.22485687 64.22100517 66.65445327 71.11171022 66 78 C64.80737549 78.38744385 63.61475098 78.7748877 62.38598633 79.17407227 C57.85105809 80.64755613 53.31647516 82.12210037 48.78198242 83.59692383 C46.84001541 84.22838642 44.89796165 84.85958232 42.95581055 85.49047852 C40.12264027 86.41087321 37.28976275 87.33216206 34.45703125 88.25390625 C33.51812042 88.55922272 32.57920959 88.86453918 31.61184692 89.17910767 C26.72002964 90.77360515 21.83501147 92.38611174 16.95849609 94.02685547 C15.50741707 94.51459694 15.50741707 94.51459694 14.02702332 95.01219177 C12.17787938 95.63514523 10.32962239 96.26073928 8.4823761 96.88929749 C7.2471949 97.30555641 7.2471949 97.30555641 5.98706055 97.73022461 C5.26294479 97.97614853 4.53882904 98.22207245 3.79277039 98.47544861 C2 99 2 99 0 99 C0 66.33 0 33.66 0 0 Z " fill="#FE4B00" transform="translate(256,271)"/>
<path d="M0 0 C26.73 0 53.46 0 81 0 C81 24.75 81 49.5 81 75 C55.92 75 30.84 75 5 75 C4.34 64.11 3.68 53.22 3 42 C2.3371937 35.33294843 1.6710962 28.66622223 1 22 C0.67 14.74 0.34 7.48 0 0 Z " fill="#FE7816" transform="translate(175,136)"/>
</svg>
