<?xml version="1.0" encoding="UTF-8"?>
<svg version="1.1" xmlns="http://www.w3.org/2000/svg" width="512" height="512">
<path d="M0 0 C168.96 0 337.92 0 512 0 C512 168.96 512 337.92 512 512 C343.04 512 174.08 512 0 512 C0 343.04 0 174.08 0 0 Z " fill="#FEDE00" transform="translate(0,0)"/>
<path d="M0 0 C1.40049243 1.20004027 2.77476859 2.43117566 4.125 3.6875 C4.95515625 4.43902344 5.7853125 5.19054687 6.640625 5.96484375 C12.59718939 11.6093127 17.04476087 17.58085833 21.125 24.6875 C18.17669735 27.84820631 15.12700192 30.13283647 11.4765625 32.4375 C10.38859375 33.1284375 9.300625 33.819375 8.1796875 34.53125 C7.03657642 35.25018779 5.89334631 35.96893635 4.75 36.6875 C3.61427166 37.40575742 2.47885208 38.12450329 1.34375 38.84375 C-0.75664288 40.17449537 -2.85852694 41.50289227 -4.96240234 42.828125 C-7.03734345 44.15274792 -9.08365194 45.52267977 -11.10888672 46.92211914 C-13.875 48.6875 -13.875 48.6875 -16.046875 48.68359375 C-18.41001633 47.39598469 -19.56138994 45.93352616 -21.125 43.75 C-21.90617187 42.68458984 -21.90617187 42.68458984 -22.703125 41.59765625 C-23.875 39.6875 -23.875 39.6875 -23.875 37.6875 C-24.44347656 37.41035156 -25.01195312 37.13320313 -25.59765625 36.84765625 C-28.65610553 35.28957831 -31.59783187 33.54385767 -34.55859375 31.80859375 C-40.78102595 28.79706248 -48.75121291 28.61956138 -55.37890625 30.3359375 C-60.82732645 32.49318002 -64.79152607 35.66584245 -67.875 40.6875 C-69.91614066 46.7483103 -69.94787228 54.15487942 -67.3125 60 C-60.05240812 72.21578599 -43.52319752 76.97772336 -31.20092773 82.43066406 C0.88402781 96.63315266 0.88402781 96.63315266 13.125 107.6875 C13.96546875 108.42355469 14.8059375 109.15960938 15.671875 109.91796875 C28.60779081 121.93269056 34.61478235 136.73027778 35.36328125 154.16015625 C35.78412296 171.71987145 32.64297887 188.29395741 20.8125 202 C3.68642637 219.80884069 -18.74614676 226.43280157 -42.95947266 226.97265625 C-53.30092476 227.07176994 -62.83472129 226.2112262 -72.875 223.6875 C-73.96683594 223.42066406 -75.05867188 223.15382813 -76.18359375 222.87890625 C-89.57635914 219.19056817 -101.46332269 212.84823641 -111.875 203.6875 C-113.07382812 202.79224609 -113.07382812 202.79224609 -114.296875 201.87890625 C-117.47708359 199.17572894 -119.89686359 196.16972267 -122.4375 192.875 C-123.14036133 191.98844727 -123.14036133 191.98844727 -123.85742188 191.08398438 C-131.875 180.80130026 -131.875 180.80130026 -131.875 176.6875 C-128.08961841 174.51726084 -124.30336335 172.34855526 -120.51635742 170.18115234 C-119.23324979 169.44652793 -117.95036497 168.71151419 -116.66772461 167.97607422 C-108.78436572 163.45632289 -100.87586341 158.99748585 -92.875 154.6875 C-92.2459375 155.54472656 -91.616875 156.40195312 -90.96875 157.28515625 C-82.4388186 168.7528584 -72.46293093 179.87532909 -57.5703125 182.4375 C-44.47065943 183.65254028 -33.41511148 182.80505375 -21.375 177 C-16.09283233 172.11399491 -13.58679584 166.96518303 -13.1875 159.75 C-13.52055934 153.20538393 -15.519828 148.57212429 -19.875 143.6875 C-30.57819755 134.55717378 -45.82600114 129.38376155 -58.65380859 123.95068359 C-78.48056833 115.52145969 -97.24382386 105.57431458 -108.875 86.6875 C-109.35453125 85.91148437 -109.8340625 85.13546875 -110.328125 84.3359375 C-119.08168556 68.56898203 -120.33837185 49.46453081 -115.71191406 32.24755859 C-110.78021968 15.73511475 -99.60768296 3.09987327 -84.6015625 -5.1015625 C-58.85453182 -17.51640152 -23.67793199 -17.54074471 0 0 Z " fill="#010100" transform="translate(436.875,245.3125)"/>
<path d="M0 0 C15.84 0 31.68 0 48 0 C48.11325367 22.58487202 48.20519627 45.16951098 48.25906086 67.75459576 C48.2847457 78.24332091 48.31970832 88.73185594 48.37719727 99.22045898 C48.42733202 108.37175458 48.45936147 117.52291236 48.47044247 126.6743415 C48.47691078 131.51146358 48.49190548 136.3481917 48.52865028 141.18518639 C48.92989938 196.15450206 48.92989938 196.15450206 30.6015625 217.39453125 C16.0122596 232.00574001 -4.34442344 237.1961284 -24.5 237.375 C-37.76574402 237.25708228 -50.04034492 234.95528652 -62 229 C-62.97324219 228.53078125 -63.94648438 228.0615625 -64.94921875 227.578125 C-78.53316167 220.40438259 -88.9421411 208.53212222 -96 195 C-96 194.01 -96 193.02 -96 192 C-93.68017578 190.28588867 -93.68017578 190.28588867 -90.4453125 188.41796875 C-89.86973602 188.08130692 -89.29415955 187.74464508 -88.70114136 187.39778137 C-86.84833174 186.31712931 -84.98705983 185.25211875 -83.125 184.1875 C-81.90825299 183.48215584 -80.69209974 182.77578634 -79.4765625 182.06835938 C-77.68591084 181.0267058 -75.89429 179.9870652 -74.09820557 178.95480347 C-69.66561346 176.40663002 -65.30829974 173.75186797 -60.98388672 171.0246582 C-59 170 -59 170 -56 170 C-54.45689951 172.18306852 -53.09638772 174.3256645 -51.75 176.625 C-47.54191064 183.46763737 -43.11433862 189.58384828 -35.26953125 192.5234375 C-26.53009006 194.35856973 -17.7156392 194.0864685 -9.953125 189.47265625 C-4.25609336 185.17709439 -2.37273145 178.73977635 -1 172 C-0.55784274 166.35750493 -0.56151449 160.73276759 -0.56762695 155.07568359 C-0.55859732 153.37964164 -0.54826717 151.68360619 -0.53674316 149.98757935 C-0.5092881 145.40978761 -0.49990434 140.83212009 -0.49388909 136.25425673 C-0.48447537 131.46027727 -0.45826964 126.6663895 -0.43388367 121.87246704 C-0.39029725 112.80633073 -0.36170208 103.74021229 -0.33856028 94.67400324 C-0.3114664 84.34743354 -0.26755753 74.02095645 -0.22227156 63.694453 C-0.12953781 42.46300551 -0.06002489 21.2315669 0 0 Z " fill="#010100" transform="translate(231,235)"/>
</svg>
