<?xml version="1.0" encoding="UTF-8"?>
<svg version="1.1" xmlns="http://www.w3.org/2000/svg" width="512" height="512">
<path d="M0 0 C3.32334192 0.01083244 6.64615556 -0.00002481 9.96948242 -0.01269531 C12.1211763 -0.0113752 14.27286986 -0.00881588 16.42456055 -0.00488281 C17.39873428 -0.00893127 18.37290802 -0.01297974 19.37660217 -0.01715088 C37.86906225 0.10744918 37.86906225 0.10744918 43.7331543 5.26074219 C49.50889009 13.28259746 48.89455032 22.35497341 48.97143555 31.91699219 C48.9812294 32.92478226 48.99102325 33.93257233 49.00111389 34.97090149 C49.18148048 58.38859106 48.75353607 81.15119613 44.7331543 104.26074219 C44.41169434 106.11916748 44.41169434 106.11916748 44.08374023 108.01513672 C32.85554637 170.76717508 5.72038488 228.34174318 -36.2668457 276.26074219 C-36.90017822 276.98382568 -37.53351074 277.70690918 -38.18603516 278.4519043 C-43.83318899 284.81553083 -49.73445743 290.88321629 -55.76025391 296.88452148 C-57.33458725 298.45346579 -58.9034616 300.02772777 -60.47192383 301.60253906 C-65.8987246 307.03291709 -71.42199145 312.27848292 -77.2668457 317.26074219 C-79.72090222 319.48090225 -82.16184969 321.71233467 -84.5871582 323.96386719 C-87.2668457 326.26074219 -87.2668457 326.26074219 -90.3840332 328.30761719 C-93.5219803 330.43152031 -95.92756716 332.27366344 -98.2668457 335.26074219 C-98.92806485 339.62478855 -98.22804879 343.59169804 -97.55541992 347.92773438 C-92.99210328 384.82033488 -106.24977174 422.732087 -128.40087891 451.89013672 C-133.98092241 459.02102341 -140.02496731 465.70814072 -146.2668457 472.26074219 C-147.05446289 473.1128125 -147.84208008 473.96488281 -148.65356445 474.84277344 C-164.01878499 490.96990574 -184.19296739 503.94439191 -206.9543457 504.63574219 C-216.92648221 504.3480844 -225.26821312 501.25606094 -233.2668457 495.26074219 C-236.8772429 491.12199418 -238.07452786 487.74180072 -238.2668457 482.26074219 C-237.64004088 476.82843375 -235.50944707 474.19621332 -231.9543457 470.07324219 C-223.17606731 459.82484954 -220.37486407 448.51072389 -221.2668457 435.26074219 C-224.48852358 416.36192315 -238.87119573 404.49943721 -251.8293457 391.63574219 C-253.04116996 390.42894759 -254.25276005 389.2219178 -255.46411133 388.01464844 C-258.39567041 385.09396812 -261.33035591 382.17646472 -264.2668457 379.26074219 C-267.8705599 382.29047395 -271.40685524 385.2718578 -274.5793457 388.76074219 C-283.67069511 397.93326436 -294.50448103 401.51287851 -307.1418457 401.69824219 C-319.92003967 401.5904537 -329.64793182 397.83280266 -339.2668457 389.26074219 C-349.55240027 378.30605303 -352.91303594 366.52048645 -352.57543945 351.78027344 C-351.75794656 335.51521766 -341.42281477 324.8720256 -330.2668457 314.26074219 C-334.15217874 309.63005535 -338.1633232 305.18533225 -342.4074707 300.88183594 C-342.9745575 300.3066774 -343.54164429 299.73151886 -344.12591553 299.13893127 C-345.31775113 297.93337678 -346.51106764 296.72928466 -347.70581055 295.52661133 C-348.91052412 294.31036706 -350.11075585 293.08966659 -351.30639648 291.86450195 C-362.78558774 280.10298379 -374.52101186 270.3983395 -391.7668457 269.94824219 C-403.74278828 270.0808172 -413.2043898 274.54982569 -422.34887695 281.94433594 C-426.63106838 285.35862624 -429.55686095 287.36091736 -435.2668457 287.26074219 C-440.52271292 286.44931006 -444.21280455 284.89791726 -447.5793457 280.69824219 C-454.88124301 269.72511319 -456.54758154 258.17363755 -454.8762207 245.23730469 C-450.93384958 226.78902956 -438.95758827 211.64370707 -426.2668457 198.26074219 C-425.43540039 197.37644531 -424.60395508 196.49214844 -423.74731445 195.58105469 C-397.56943615 168.5216373 -359.9877571 147.55843604 -321.7265625 146.16845703 C-318.88509109 146.12650344 -316.04609154 146.12607639 -313.2043457 146.13574219 C-312.18937012 146.12679932 -311.17439453 146.11785645 -310.12866211 146.10864258 C-305.6243324 146.0968474 -301.3152122 146.13506477 -296.88793945 147.01464844 C-292.94590812 147.73399722 -290.19240505 148.11173757 -286.2668457 147.26074219 C-281.53094624 143.8462372 -278.19691218 138.95074567 -274.79125977 134.28222656 C-272.52185701 131.27283278 -269.98140036 128.55671112 -267.3918457 125.82324219 C-264.6063273 122.82378898 -261.87192463 119.80088772 -259.2121582 116.69042969 C-254.59224403 111.39435424 -249.62923814 106.43709248 -244.66186523 101.47045898 C-243.02857122 99.83498337 -241.403461 98.19166511 -239.77856445 96.54785156 C-233.26409637 89.99857876 -226.5230391 83.99476508 -219.2668457 78.26074219 C-218.09266373 77.28459844 -216.92156171 76.30472413 -215.75512695 75.31933594 C-170.34774433 37.55772401 -114.29160794 14.73335943 -56.5168457 4.51074219 C-54.83220215 4.21224365 -54.83220215 4.21224365 -53.11352539 3.90771484 C-35.4090685 0.93998934 -17.93680853 -0.06957956 0 0 Z " fill="#19A1FF" transform="translate(463.266845703125,-0.2607421875)"/>
<path d="M0 0 C7.37745322 5.59145584 12.67737451 11.82303345 17 20 C17.3609375 20.68191406 17.721875 21.36382812 18.09375 22.06640625 C22.11756571 31.58571102 21.3304674 44.5330767 17.9375 54.0625 C14.29338433 63.00714756 7.20924126 70.09121858 0.43164062 76.77954102 C-0.65030327 77.85951355 -0.65030327 77.85951355 -1.75410461 78.96130371 C-4.11272982 81.31349758 -6.47825812 83.65861988 -8.84375 86.00390625 C-10.49900703 87.65288225 -12.15374289 89.30238156 -13.8079834 90.95237732 C-18.14766547 95.27881271 -22.49288982 99.59963413 -26.83978271 103.91882324 C-33.79705951 110.83284153 -40.74756296 117.75365188 -47.69477844 124.67777824 C-50.1112901 127.08413528 -52.53122226 129.48701168 -54.95153809 131.88954163 C-56.44502368 133.37619364 -57.93839705 134.86295841 -59.43164062 136.34985352 C-60.09678177 137.00825729 -60.76192291 137.66666107 -61.44721985 138.34501648 C-65.26584025 142.15445831 -68.89429589 146.07497696 -72.41133881 150.16494656 C-80.50816985 159.51754971 -90.28975509 167.03654793 -103.00292969 168.18017578 C-117.0356454 169.04597138 -128.15953341 167.0328876 -139.5234375 158.20703125 C-147.63663902 150.97681223 -154.03160604 140.93510484 -155.22290039 129.94335938 C-155.99464091 115.31529283 -153.70998631 103.44701427 -144 92 C-139.05074749 86.6038784 -133.8084817 81.5376107 -128.25668335 76.76625061 C-124.24394146 73.26259348 -120.46850314 69.57813197 -116.73291016 65.78295898 C-116.05530136 65.09907104 -115.37769257 64.41518311 -114.67955017 63.71057129 C-113.22227701 62.23955076 -111.76609007 60.7674535 -110.31090164 59.29437065 C-108.00070512 56.95729 -105.68594886 54.62481839 -103.36972046 52.29371643 C-96.78902465 45.67051141 -90.21105029 39.04468257 -83.64941406 32.40258789 C-79.62240203 28.32686537 -75.58552987 24.2611352 -71.54218674 20.20161629 C-70.0116307 18.66121293 -68.48472426 17.11717377 -66.961689 15.56933403 C-48.64851518 -3.03551932 -25.23709563 -16.64677654 0 0 Z " fill="#C4E5FF" transform="translate(266,233)"/>
<path d="M0 0 C1.00812744 -0.00064453 2.01625488 -0.00128906 3.05493164 -0.00195312 C10.8185771 0.05272481 18.24052636 0.70559177 25.875 2.1875 C25.35468186 6.34022779 22.87657939 8.76333166 20.1875 11.75 C13.51372563 19.40169385 7.57827874 27.54676067 1.63037109 35.76757812 C-0.05234112 38.08733382 -1.74856523 40.39650311 -3.44921875 42.703125 C-17.25460068 61.5026484 -29.63341432 81.17081602 -40.9375 101.5625 C-41.39398926 102.38298828 -41.85047852 103.20347656 -42.32080078 104.04882812 C-48.36682767 114.19052087 -48.36682767 114.19052087 -50.4375 125.5 C-50.41300781 126.30050781 -50.38851562 127.10101563 -50.36328125 127.92578125 C-50.13461772 130.09621054 -49.71558579 132.08923993 -49.125 134.1875 C-50.176875 133.59001953 -50.176875 133.59001953 -51.25 132.98046875 C-64.49768783 125.58264307 -76.68912738 121.53965967 -91.8125 125.8125 C-98.52414125 128.08708964 -103.73340496 131.44495317 -109.20703125 135.87109375 C-113.48922268 139.28538405 -116.41501525 141.28767517 -122.125 141.1875 C-127.38086722 140.37606787 -131.07095885 138.82467507 -134.4375 134.625 C-141.7393973 123.651871 -143.40573584 112.10039536 -141.734375 99.1640625 C-137.79200388 80.71578738 -125.81574256 65.57046489 -113.125 52.1875 C-112.29355469 51.30320313 -111.46210937 50.41890625 -110.60546875 49.5078125 C-81.77583897 19.70734599 -41.83428646 -0.0276842 0 0 Z " fill="#C1E4FF" transform="translate(150.125,145.8125)"/>
<path d="M0 0 C7.34444148 37.8369887 -2.66197267 76.06889784 -23.56054688 107.88085938 C-30.45026397 118.02379432 -38.5578702 127.13761777 -47 136 C-47.78761719 136.85207031 -48.57523437 137.70414063 -49.38671875 138.58203125 C-64.75193929 154.70916355 -84.92612169 167.68364972 -107.6875 168.375 C-117.6596365 168.08734222 -126.00136742 164.99531875 -134 159 C-137.6103972 154.861252 -138.80768216 151.48105853 -139 146 C-138.37319518 140.56769156 -136.24260136 137.93547113 -132.6875 133.8125 C-123.90922161 123.56410735 -121.10801837 112.2499817 -122 99 C-123.26968658 91.55183857 -126.04636679 85.38466981 -130 79 C-130.598125 77.989375 -131.19625 76.97875 -131.8125 75.9375 C-132.204375 75.298125 -132.59625 74.65875 -133 74 C-132.360625 74.33 -131.72125 74.66 -131.0625 75 C-123.80944625 77.36834408 -117.59106173 76.0221935 -110.875 72.8125 C-109.72729126 72.27955322 -109.72729126 72.27955322 -108.55639648 71.73583984 C-81.65542338 58.94531021 -56.80968483 41.78912977 -33 24 C-32.42185547 23.56816406 -31.84371094 23.13632812 -31.24804688 22.69140625 C-23.7423814 17.05557323 -16.44924626 11.16482462 -9.20263672 5.20117188 C-8.55439941 4.66943359 -7.90616211 4.13769531 -7.23828125 3.58984375 C-6.66118408 3.11409912 -6.08408691 2.63835449 -5.48950195 2.14819336 C-3.57251566 0.67047061 -2.44852748 0 0 0 Z " fill="#C1E4FF" transform="translate(364,336)"/>
<path d="M0 0 C3.32334192 0.01083244 6.64615556 -0.00002481 9.96948242 -0.01269531 C12.1211763 -0.0113752 14.27286986 -0.00881588 16.42456055 -0.00488281 C17.39873428 -0.00893127 18.37290802 -0.01297974 19.37660217 -0.01715088 C37.86906225 0.10744918 37.86906225 0.10744918 43.7331543 5.26074219 C49.50889009 13.28259746 48.89455032 22.35497341 48.97143555 31.91699219 C48.98612633 33.42867729 48.98612633 33.42867729 49.00111389 34.97090149 C49.29367763 72.95557807 46.50680554 109.87896457 34.7331543 146.26074219 C27.8812541 140.64452587 21.71049433 134.37173406 15.46386719 128.10498047 C14.23153821 126.87236907 12.9989883 125.63997852 11.76623535 124.40779114 C8.43600133 121.07784294 5.1088503 117.74482991 1.78226018 114.41124201 C-1.70061838 110.92209413 -5.1863464 107.43579526 -8.67176819 103.94918823 C-15.26445544 97.3533982 -21.85459033 90.75506414 -28.44380337 84.15580356 C-35.94849185 76.63992121 -43.45603448 69.12689262 -50.96381366 61.61409783 C-66.40132699 46.16614396 -81.83526735 30.7146246 -97.2668457 15.26074219 C-93.94965134 11.94354783 -89.42548058 11.5479342 -84.9543457 10.44824219 C-83.89634766 10.18688477 -82.83834961 9.92552734 -81.74829102 9.65625 C-73.38716059 7.65161978 -64.98550855 5.99136429 -56.5168457 4.51074219 C-55.39624756 4.31246826 -54.27564941 4.11419434 -53.12109375 3.90991211 C-35.41520829 0.93711288 -17.93872934 -0.06958701 0 0 Z " fill="#E9F5FF" transform="translate(463.266845703125,-0.2607421875)"/>
<path d="M0 0 C1.00450195 0.00572021 2.00900391 0.01144043 3.04394531 0.01733398 C16.37362727 0.33465649 27.04037218 4.63726738 37.8125 12.5 C38.84375 13.221875 39.875 13.94375 40.9375 14.6875 C51.26927593 23.88457222 59.03798911 37.93166855 59.96582031 51.79003906 C60.83843945 70.5407089 57.96799171 85.30613003 45.6328125 100.1171875 C35.15244094 111.42224404 20.85528726 118.90935536 5.3515625 119.83984375 C-11.73658477 120.41292186 -27.64068159 115.91263257 -40.5625 104.375 C-51.85839745 93.71384908 -58.53145463 79.33404912 -59.390625 63.8359375 C-59.59900798 46.22757611 -55.03754671 30.61627071 -42.50390625 17.6796875 C-30.35989998 6.25244383 -16.79703253 -0.11203694 0 0 Z " fill="#E9F5FF" transform="translate(357.1875,94.5)"/>
<path d="M0 0 C4.52226971 2.58534169 7.23575758 4.96543089 8.8125 10.08984375 C9.74551626 16.55009557 8.49478285 20.6861071 4.8125 26.08984375 C2.44078664 28.86923827 -0.12581016 31.42853673 -2.72241211 33.99707031 C-3.47574326 34.75405212 -4.2290744 35.51103394 -5.00523376 36.29095459 C-7.48444327 38.778236 -9.97429769 41.25454287 -12.46484375 43.73046875 C-14.19643917 45.46154524 -15.9275158 47.19314083 -17.65809631 48.92523193 C-21.28062806 52.54767411 -24.90825919 56.16490528 -28.53979492 59.77832031 C-33.19325596 64.40906962 -37.83553638 69.05083688 -42.47428036 73.69632339 C-46.04522572 77.27061031 -49.62114074 80.8398905 -53.19867134 84.40758514 C-54.91241071 86.11747738 -56.62480612 87.82871769 -58.33582878 89.54132843 C-60.72672184 91.93259246 -63.12401081 94.3172521 -65.52319336 96.70019531 C-66.22829041 97.40776978 -66.93338745 98.11534424 -67.65985107 98.84436035 C-72.7702604 103.89969445 -76.61564007 107.51767919 -84.125 107.52734375 C-89.2667385 107.38837784 -92.34226391 106.73788825 -96.1875 103.08984375 C-98.7865635 99.42353196 -99.66178036 96.7647828 -99.75 92.27734375 C-99.79253906 91.30152344 -99.83507812 90.32570313 -99.87890625 89.3203125 C-97.8610303 79.89215765 -87.91908628 72.54570915 -81.2890625 65.9609375 C-80.12816389 64.80123396 -78.96763796 63.64115723 -77.8074646 62.48072815 C-75.38481869 60.05963863 -72.9588767 57.64191999 -70.53027344 55.22680664 C-67.43659311 52.15010501 -64.34952547 49.06687264 -61.26470375 45.98129177 C-58.87133979 43.58820138 -56.47536577 41.19773853 -54.07853317 38.80812263 C-52.94020548 37.67294932 -51.80245798 36.53719385 -50.66533279 35.40081596 C-45.18758846 29.93061218 -39.69733606 24.53321184 -33.81121826 19.49687195 C-31.71944699 17.68425382 -29.78293792 15.75062202 -27.86328125 13.7578125 C-27.14462891 13.02240234 -26.42597656 12.28699219 -25.68554688 11.52929688 C-24.21306589 10.01207562 -22.7443848 8.49115837 -21.27929688 6.96679688 C-20.20711914 5.87334961 -20.20711914 5.87334961 -19.11328125 4.7578125 C-18.16062378 3.77204224 -18.16062378 3.77204224 -17.1887207 2.76635742 C-12.27484445 -1.35022038 -5.93790532 -2.47059275 0 0 Z " fill="#4B63FF" transform="translate(99.1875,404.91015625)"/>
<path d="M0 0 C3.5915299 4.00199046 5.11593884 8.28880898 5.23828125 13.671875 C4.33364816 20.29801868 0.36288258 24.29194238 -4.23876953 28.85644531 C-6.08788603 30.71416769 -7.88356201 32.6181382 -9.68359375 34.5234375 C-11.07926226 35.97536982 -12.4764049 37.42588654 -13.875 38.875 C-14.53516113 39.57375244 -15.19532227 40.27250488 -15.87548828 40.99243164 C-20.51011478 45.70106988 -24.95813163 49.2218528 -31.86791992 49.52880859 C-36.78360838 49.1634808 -40.07841673 47.56370925 -43.8125 44.4375 C-47.50562392 39.72558328 -48.10139718 34.98942512 -47.4375 29.125 C-45.52458648 23.53435598 -40.8614188 19.5557628 -36.8125 15.4375 C-36.21550293 14.82148926 -35.61850586 14.20547852 -35.00341797 13.57080078 C-33.03165228 11.53863956 -31.04947753 9.5172853 -29.0625 7.5 C-28.42481689 6.84902344 -27.78713379 6.19804687 -27.13012695 5.52734375 C-18.7945501 -2.82023931 -10.83908414 -6.02171341 0 0 Z " fill="#456AFF" transform="translate(145.8125,449.5625)"/>
<path d="M0 0 C4.38239387 2.84061351 6.47105518 6.02133975 7.83203125 11.125 C8.13426604 18.65458839 5.4669476 23.16606273 0.46948242 28.77807617 C-1.84174011 31.12975108 -4.15269987 33.48110253 -6.48461914 35.81225586 C-7.97685544 37.30887607 -9.45233534 38.82078606 -10.92773438 40.33398438 C-11.8883396 41.30045751 -12.84989745 42.26598493 -13.8125 43.23046875 C-14.67206299 44.09824951 -15.53162598 44.96603027 -16.41723633 45.86010742 C-20.07021047 48.86788599 -23.80030049 50.91664519 -28.609375 51.33984375 C-34.75767902 50.53592186 -38.77130984 48.7613248 -43.04296875 44.0625 C-44.78261976 39.52007791 -45.01101045 34.91108714 -44.16796875 30.125 C-41.52914204 25.73554074 -38.49604021 22.19632392 -34.88671875 18.578125 C-34.3913562 18.080849 -33.89599365 17.583573 -33.38562012 17.07122803 C-32.34596038 16.03021702 -31.30380974 14.99168819 -30.25927734 13.95556641 C-28.6652594 12.37230894 -27.08225912 10.77859327 -25.5 9.18359375 C-24.48371393 8.16862858 -23.46680802 7.1542836 -22.44921875 6.140625 C-21.53205078 5.22571289 -20.61488281 4.31080078 -19.66992188 3.36816406 C-14.14438023 -1.58584419 -7.02946511 -2.83711745 0 0 Z " fill="#456AFF" transform="translate(58.16796875,362.875)"/>
</svg>
